%TF.GenerationSoftware,KiCad,Pcbnew,9.0.7*%
%TF.CreationDate,2026-02-27T13:46:47+09:00*%
%TF.ProjectId,meishi_tenkey,6d656973-6869-45f7-9465-6e6b65792e6b,rev?*%
%TF.SameCoordinates,Original*%
%TF.FileFunction,Legend,Top*%
%TF.FilePolarity,Positive*%
%FSLAX46Y46*%
G04 Gerber Fmt 4.6, Leading zero omitted, Abs format (unit mm)*
G04 Created by KiCad (PCBNEW 9.0.7) date 2026-02-27 13:46:47*
%MOMM*%
%LPD*%
G01*
G04 APERTURE LIST*
%ADD10C,0.875000*%
%ADD11C,0.150000*%
%ADD12C,0.120000*%
G04 APERTURE END LIST*
D10*
G36*
X194743137Y-51390373D02*
G01*
X155362036Y-119600441D01*
X146617584Y-114551830D01*
X146863311Y-114126219D01*
X147840607Y-114126219D01*
X147843928Y-114145020D01*
X147843928Y-114164112D01*
X147853823Y-114201040D01*
X147860473Y-114238689D01*
X147868546Y-114255989D01*
X147873488Y-114274431D01*
X147892604Y-114307542D01*
X147908771Y-114342184D01*
X147921045Y-114356804D01*
X147930593Y-114373340D01*
X147957629Y-114400376D01*
X147982210Y-114429653D01*
X147997851Y-114440598D01*
X148011352Y-114454099D01*
X148058935Y-114485893D01*
X154121113Y-117985893D01*
X154172439Y-118011204D01*
X154282758Y-118040764D01*
X154396968Y-118040764D01*
X154507287Y-118011204D01*
X154606196Y-117954099D01*
X154686955Y-117873340D01*
X154744060Y-117774431D01*
X154773620Y-117664112D01*
X154773620Y-117549902D01*
X154744060Y-117439583D01*
X154686955Y-117340674D01*
X154606196Y-117259915D01*
X154558613Y-117228121D01*
X150204287Y-114714149D01*
X153736477Y-115022127D01*
X153749932Y-115022416D01*
X153755267Y-115023359D01*
X153762876Y-115022695D01*
X153793691Y-115023359D01*
X153831151Y-115016742D01*
X153869045Y-115013438D01*
X153887167Y-115006847D01*
X153906161Y-115003493D01*
X153940633Y-114987405D01*
X153976380Y-114974407D01*
X153992180Y-114963350D01*
X154009656Y-114955195D01*
X154038786Y-114930736D01*
X154069954Y-114908927D01*
X154082354Y-114894156D01*
X154097125Y-114881756D01*
X154118936Y-114850586D01*
X154143393Y-114821458D01*
X154151546Y-114803986D01*
X154162606Y-114788182D01*
X154175608Y-114752425D01*
X154191691Y-114717963D01*
X154195044Y-114698975D01*
X154201637Y-114680847D01*
X154204941Y-114642946D01*
X154211557Y-114605493D01*
X154209881Y-114586281D01*
X154211557Y-114567069D01*
X154204940Y-114529608D01*
X154201636Y-114491715D01*
X154195045Y-114473592D01*
X154191691Y-114454599D01*
X154175602Y-114420123D01*
X154162605Y-114384380D01*
X154146625Y-114358028D01*
X154143394Y-114351104D01*
X154139910Y-114346954D01*
X154132932Y-114335447D01*
X152100121Y-111430471D01*
X156454446Y-113944442D01*
X156505772Y-113969753D01*
X156616091Y-113999313D01*
X156730301Y-113999313D01*
X156840620Y-113969753D01*
X156939529Y-113912648D01*
X157020288Y-113831889D01*
X157077393Y-113732980D01*
X157106953Y-113622661D01*
X157106953Y-113508451D01*
X157077393Y-113398132D01*
X157020288Y-113299223D01*
X156939529Y-113218464D01*
X156891946Y-113186670D01*
X150829768Y-109686670D01*
X150778442Y-109661359D01*
X150760000Y-109656417D01*
X150742700Y-109648344D01*
X150705051Y-109641694D01*
X150668123Y-109631799D01*
X150649032Y-109631799D01*
X150630230Y-109628478D01*
X150592143Y-109631799D01*
X150553913Y-109631799D01*
X150535470Y-109636740D01*
X150516452Y-109638399D01*
X150480522Y-109651464D01*
X150443594Y-109661359D01*
X150427062Y-109670903D01*
X150409117Y-109677429D01*
X150377790Y-109699350D01*
X150344685Y-109718464D01*
X150331184Y-109731964D01*
X150315543Y-109742910D01*
X150290962Y-109772186D01*
X150263926Y-109799223D01*
X150254378Y-109815758D01*
X150242104Y-109830379D01*
X150225937Y-109865020D01*
X150206821Y-109898132D01*
X150201879Y-109916573D01*
X150193806Y-109933874D01*
X150187156Y-109971522D01*
X150177261Y-110008451D01*
X150177261Y-110027542D01*
X150173940Y-110046344D01*
X150177261Y-110084430D01*
X150177261Y-110122661D01*
X150182202Y-110141103D01*
X150183861Y-110160122D01*
X150196926Y-110196051D01*
X150206821Y-110232980D01*
X150216365Y-110249511D01*
X150222891Y-110267457D01*
X150252565Y-110316390D01*
X152878524Y-114069001D01*
X148315687Y-113671161D01*
X148258473Y-113669929D01*
X148239671Y-113673250D01*
X148220580Y-113673250D01*
X148183651Y-113683145D01*
X148146003Y-113689795D01*
X148128702Y-113697868D01*
X148110261Y-113702810D01*
X148077149Y-113721926D01*
X148042508Y-113738093D01*
X148027887Y-113750367D01*
X148011352Y-113759915D01*
X147984315Y-113786951D01*
X147955039Y-113811532D01*
X147944093Y-113827173D01*
X147930593Y-113840674D01*
X147911476Y-113873785D01*
X147889559Y-113905106D01*
X147883034Y-113923047D01*
X147873488Y-113939583D01*
X147863592Y-113976514D01*
X147850528Y-114012441D01*
X147848869Y-114031459D01*
X147843928Y-114049902D01*
X147843928Y-114088132D01*
X147840607Y-114126219D01*
X146863311Y-114126219D01*
X150907372Y-107121699D01*
X151843928Y-107121699D01*
X151843928Y-107235909D01*
X151873488Y-107346228D01*
X151930593Y-107445137D01*
X152011352Y-107525896D01*
X152058935Y-107557690D01*
X158121113Y-111057690D01*
X158172439Y-111083001D01*
X158282758Y-111112561D01*
X158396968Y-111112561D01*
X158507287Y-111083001D01*
X158606196Y-111025896D01*
X158686955Y-110945137D01*
X158718749Y-110897554D01*
X160385416Y-108010803D01*
X160410727Y-107959477D01*
X160440287Y-107849158D01*
X160440287Y-107734948D01*
X160410727Y-107624629D01*
X160353622Y-107525720D01*
X160272863Y-107444961D01*
X160173954Y-107387856D01*
X160063635Y-107358296D01*
X159949425Y-107358296D01*
X159839106Y-107387856D01*
X159740197Y-107444961D01*
X159659438Y-107525720D01*
X159627644Y-107573303D01*
X158179726Y-110081168D01*
X155762072Y-108685334D01*
X156709989Y-107043495D01*
X156735300Y-106992169D01*
X156764860Y-106881850D01*
X156764860Y-106767640D01*
X156735300Y-106657321D01*
X156678195Y-106558412D01*
X156597436Y-106477653D01*
X156498527Y-106420548D01*
X156388208Y-106390988D01*
X156273998Y-106390988D01*
X156163679Y-106420547D01*
X156064770Y-106477653D01*
X155984011Y-106558412D01*
X155952217Y-106605995D01*
X155004300Y-108247834D01*
X152875321Y-107018667D01*
X154323238Y-104510803D01*
X154348549Y-104459477D01*
X154378109Y-104349158D01*
X154378109Y-104234948D01*
X154348549Y-104124629D01*
X154291444Y-104025720D01*
X154210685Y-103944961D01*
X154111776Y-103887856D01*
X154001457Y-103858296D01*
X153887247Y-103858296D01*
X153776928Y-103887856D01*
X153678019Y-103944961D01*
X153597260Y-104025720D01*
X153565466Y-104073303D01*
X151898799Y-106960054D01*
X151873488Y-107011380D01*
X151843928Y-107121699D01*
X150907372Y-107121699D01*
X154074038Y-101636872D01*
X155010595Y-101636872D01*
X155010595Y-101751082D01*
X155040155Y-101861401D01*
X155097260Y-101960310D01*
X155178019Y-102041069D01*
X155225602Y-102072863D01*
X161287779Y-105572863D01*
X161339105Y-105598174D01*
X161449424Y-105627734D01*
X161563634Y-105627734D01*
X161673953Y-105598174D01*
X161772862Y-105541069D01*
X161853621Y-105460310D01*
X161910726Y-105361401D01*
X161940286Y-105251082D01*
X161940286Y-105136872D01*
X161910726Y-105026553D01*
X161853621Y-104927644D01*
X161772862Y-104846885D01*
X161725279Y-104815091D01*
X155663102Y-101315091D01*
X155611776Y-101289780D01*
X155501457Y-101260220D01*
X155387247Y-101260220D01*
X155276928Y-101289780D01*
X155178019Y-101346885D01*
X155097260Y-101427644D01*
X155040155Y-101526553D01*
X155010595Y-101636872D01*
X154074038Y-101636872D01*
X155793311Y-98659004D01*
X157129646Y-98659004D01*
X157129961Y-98716231D01*
X157132603Y-98729141D01*
X157132603Y-98742322D01*
X157143767Y-98798450D01*
X157265775Y-99253792D01*
X157284171Y-99307983D01*
X157290759Y-99319395D01*
X157294928Y-99331900D01*
X157323269Y-99381617D01*
X157733953Y-100003626D01*
X157748242Y-100022461D01*
X157751960Y-100028901D01*
X157756795Y-100033736D01*
X157768541Y-100049219D01*
X157801537Y-100078478D01*
X157832719Y-100109660D01*
X157848876Y-100120456D01*
X157853994Y-100124994D01*
X157860644Y-100128319D01*
X157880302Y-100141454D01*
X158457652Y-100474787D01*
X158478852Y-100485242D01*
X158485061Y-100489341D01*
X158491552Y-100491504D01*
X158508978Y-100500098D01*
X158551574Y-100511511D01*
X158593411Y-100525457D01*
X158612688Y-100527887D01*
X158619297Y-100529658D01*
X158626734Y-100529658D01*
X158650189Y-100532615D01*
X159394206Y-100577273D01*
X159451433Y-100576958D01*
X159464344Y-100574316D01*
X159477524Y-100574316D01*
X159533652Y-100563152D01*
X159988994Y-100441144D01*
X160043185Y-100422748D01*
X160054597Y-100416159D01*
X160067102Y-100411991D01*
X160116819Y-100383650D01*
X160738828Y-99972966D01*
X160763354Y-99954358D01*
X160769903Y-99950430D01*
X160776896Y-99944085D01*
X160784420Y-99938378D01*
X160789487Y-99932663D01*
X160812288Y-99911979D01*
X161734246Y-98958470D01*
X162256931Y-98613366D01*
X162575117Y-98528108D01*
X163145171Y-98562325D01*
X163543635Y-98792378D01*
X163858295Y-99268952D01*
X163943553Y-99587138D01*
X163909336Y-100157193D01*
X163163141Y-101449640D01*
X162427586Y-102101895D01*
X162387343Y-102142583D01*
X162324414Y-102237893D01*
X162288298Y-102346243D01*
X162281455Y-102460248D01*
X162304352Y-102572139D01*
X162355428Y-102674292D01*
X162431203Y-102759745D01*
X162526513Y-102822674D01*
X162634863Y-102858790D01*
X162748868Y-102865633D01*
X162860759Y-102842736D01*
X162962912Y-102791660D01*
X163008122Y-102756573D01*
X163796797Y-102057215D01*
X163837040Y-102016527D01*
X163844302Y-102005527D01*
X163853621Y-101996209D01*
X163885415Y-101948626D01*
X164718749Y-100505250D01*
X164729204Y-100484049D01*
X164733303Y-100477841D01*
X164735466Y-100471349D01*
X164744060Y-100453924D01*
X164755473Y-100411327D01*
X164769419Y-100369491D01*
X164771849Y-100350213D01*
X164773620Y-100343605D01*
X164773620Y-100336168D01*
X164776577Y-100312713D01*
X164821235Y-99568696D01*
X164820920Y-99511469D01*
X164818278Y-99498558D01*
X164818278Y-99485377D01*
X164807113Y-99429249D01*
X164685104Y-98973907D01*
X164666709Y-98919717D01*
X164660120Y-98908304D01*
X164655952Y-98895800D01*
X164627611Y-98846083D01*
X164216928Y-98224075D01*
X164202639Y-98205241D01*
X164198921Y-98198800D01*
X164194083Y-98193962D01*
X164182340Y-98178483D01*
X164149349Y-98149228D01*
X164118162Y-98118041D01*
X164102004Y-98107244D01*
X164096887Y-98102707D01*
X164090236Y-98099381D01*
X164070579Y-98086247D01*
X163493228Y-97752913D01*
X163472027Y-97742457D01*
X163465819Y-97738359D01*
X163459327Y-97736195D01*
X163441902Y-97727602D01*
X163399305Y-97716188D01*
X163357469Y-97702243D01*
X163338191Y-97699812D01*
X163331583Y-97698042D01*
X163324146Y-97698042D01*
X163300691Y-97695085D01*
X162556675Y-97650427D01*
X162499448Y-97650742D01*
X162486537Y-97653384D01*
X162473356Y-97653384D01*
X162417228Y-97664549D01*
X161961886Y-97786558D01*
X161907696Y-97804953D01*
X161896283Y-97811541D01*
X161883779Y-97815710D01*
X161834062Y-97844051D01*
X161212053Y-98254734D01*
X161187526Y-98273340D01*
X161180978Y-98277270D01*
X161173983Y-98283614D01*
X161166461Y-98289322D01*
X161161394Y-98295035D01*
X161138592Y-98315721D01*
X160216632Y-99269229D01*
X159693950Y-99614333D01*
X159375762Y-99699591D01*
X158805708Y-99665374D01*
X158407244Y-99435321D01*
X158092585Y-98958748D01*
X158007327Y-98640560D01*
X158041544Y-98070506D01*
X158787738Y-96778060D01*
X159523295Y-96125805D01*
X159563537Y-96085117D01*
X159626466Y-95989807D01*
X159662583Y-95881458D01*
X159669426Y-95767452D01*
X159646529Y-95655561D01*
X159595453Y-95553408D01*
X159519678Y-95467955D01*
X159424367Y-95405027D01*
X159316018Y-95368910D01*
X159202013Y-95362067D01*
X159090121Y-95384964D01*
X158987968Y-95436040D01*
X158942759Y-95471127D01*
X158154083Y-96170486D01*
X158113840Y-96211174D01*
X158106577Y-96222173D01*
X158097259Y-96231492D01*
X158065465Y-96279075D01*
X157232132Y-97722450D01*
X157221676Y-97743651D01*
X157217578Y-97749859D01*
X157215414Y-97756350D01*
X157206821Y-97773776D01*
X157195407Y-97816372D01*
X157181462Y-97858209D01*
X157179031Y-97877486D01*
X157177261Y-97884095D01*
X157177261Y-97891531D01*
X157174304Y-97914987D01*
X157129646Y-98659004D01*
X155793311Y-98659004D01*
X159074038Y-92976618D01*
X160010595Y-92976618D01*
X160010595Y-93090828D01*
X160040155Y-93201147D01*
X160097260Y-93300056D01*
X160178019Y-93380815D01*
X160225602Y-93412609D01*
X166287779Y-96912609D01*
X166339105Y-96937920D01*
X166449424Y-96967480D01*
X166563634Y-96967480D01*
X166673953Y-96937920D01*
X166772862Y-96880815D01*
X166853621Y-96800056D01*
X166910726Y-96701147D01*
X166940286Y-96590828D01*
X166940286Y-96476618D01*
X166910726Y-96366299D01*
X166853621Y-96267390D01*
X166772862Y-96186631D01*
X166725279Y-96154837D01*
X163928739Y-94540253D01*
X165491239Y-91833923D01*
X168287779Y-93448507D01*
X168339105Y-93473818D01*
X168449424Y-93503378D01*
X168563634Y-93503378D01*
X168673953Y-93473818D01*
X168772862Y-93416713D01*
X168853621Y-93335954D01*
X168910726Y-93237045D01*
X168940286Y-93126726D01*
X168940286Y-93012516D01*
X168910726Y-92902197D01*
X168853621Y-92803288D01*
X168772862Y-92722529D01*
X168725279Y-92690735D01*
X162663102Y-89190735D01*
X162611776Y-89165424D01*
X162501457Y-89135864D01*
X162387247Y-89135864D01*
X162276928Y-89165424D01*
X162178019Y-89222529D01*
X162097260Y-89303288D01*
X162040155Y-89402197D01*
X162010595Y-89512516D01*
X162010595Y-89626726D01*
X162040155Y-89737045D01*
X162097260Y-89835954D01*
X162178019Y-89916713D01*
X162225602Y-89948507D01*
X164733467Y-91396423D01*
X163170967Y-94102753D01*
X160663102Y-92654837D01*
X160611776Y-92629526D01*
X160501457Y-92599966D01*
X160387247Y-92599966D01*
X160276928Y-92629526D01*
X160178019Y-92686631D01*
X160097260Y-92767390D01*
X160040155Y-92866299D01*
X160010595Y-92976618D01*
X159074038Y-92976618D01*
X162740705Y-86625765D01*
X163677261Y-86625765D01*
X163677261Y-86739975D01*
X163706821Y-86850294D01*
X163763926Y-86949203D01*
X163844685Y-87029962D01*
X163892268Y-87061756D01*
X169954446Y-90561756D01*
X170005772Y-90587067D01*
X170116091Y-90616627D01*
X170230301Y-90616627D01*
X170340620Y-90587067D01*
X170439529Y-90529962D01*
X170520288Y-90449203D01*
X170577393Y-90350294D01*
X170606953Y-90239975D01*
X170606953Y-90125765D01*
X170577393Y-90015446D01*
X170520288Y-89916537D01*
X170439529Y-89835778D01*
X170391946Y-89803984D01*
X169026638Y-89015723D01*
X171150122Y-89015723D01*
X171150122Y-89129933D01*
X171179682Y-89240252D01*
X171236787Y-89339161D01*
X171317546Y-89419920D01*
X171416455Y-89477025D01*
X171526774Y-89506585D01*
X171640984Y-89506585D01*
X171751303Y-89477025D01*
X171850212Y-89419920D01*
X171930971Y-89339161D01*
X171962765Y-89291578D01*
X174629432Y-84672776D01*
X174654743Y-84621450D01*
X174684303Y-84511131D01*
X174684303Y-84396921D01*
X174654743Y-84286602D01*
X174597638Y-84187693D01*
X174516879Y-84106934D01*
X174417970Y-84049829D01*
X174307651Y-84020269D01*
X174193441Y-84020269D01*
X174083122Y-84049829D01*
X173984213Y-84106934D01*
X173903454Y-84187693D01*
X173871660Y-84235276D01*
X171204993Y-88854078D01*
X171179682Y-88905404D01*
X171150122Y-89015723D01*
X169026638Y-89015723D01*
X164329768Y-86303984D01*
X164278442Y-86278673D01*
X164168123Y-86249113D01*
X164053913Y-86249113D01*
X163943594Y-86278673D01*
X163844685Y-86335778D01*
X163763926Y-86416537D01*
X163706821Y-86515446D01*
X163677261Y-86625765D01*
X162740705Y-86625765D01*
X166574038Y-79986238D01*
X167510594Y-79986238D01*
X167510594Y-80100448D01*
X167540154Y-80210767D01*
X167597259Y-80309676D01*
X167678018Y-80390435D01*
X167776927Y-80447540D01*
X167887246Y-80477100D01*
X168001456Y-80477100D01*
X168111775Y-80447540D01*
X168210684Y-80390435D01*
X168291443Y-80309676D01*
X168323237Y-80262093D01*
X169104487Y-78908927D01*
X174787779Y-82190178D01*
X174839105Y-82215489D01*
X174949424Y-82245049D01*
X175063634Y-82245049D01*
X175173953Y-82215489D01*
X175272862Y-82158384D01*
X175353621Y-82077625D01*
X175410726Y-81978716D01*
X175440286Y-81868397D01*
X175440286Y-81754187D01*
X175410726Y-81643868D01*
X175353621Y-81544959D01*
X175272862Y-81464200D01*
X175225279Y-81432406D01*
X169541986Y-78151155D01*
X170323237Y-76797991D01*
X170348548Y-76746665D01*
X170378108Y-76636346D01*
X170378108Y-76522136D01*
X170348548Y-76411817D01*
X170291443Y-76312908D01*
X170210684Y-76232149D01*
X170111775Y-76175044D01*
X170001456Y-76145484D01*
X169887246Y-76145484D01*
X169776927Y-76175044D01*
X169678018Y-76232149D01*
X169597259Y-76312908D01*
X169565465Y-76360491D01*
X167565465Y-79824593D01*
X167540154Y-79875919D01*
X167510594Y-79986238D01*
X166574038Y-79986238D01*
X169740705Y-74501410D01*
X170677261Y-74501410D01*
X170677261Y-74615620D01*
X170706821Y-74725939D01*
X170763926Y-74824848D01*
X170844685Y-74905607D01*
X170892268Y-74937401D01*
X176954445Y-78437401D01*
X177005771Y-78462712D01*
X177116090Y-78492272D01*
X177230300Y-78492272D01*
X177340619Y-78462712D01*
X177439528Y-78405607D01*
X177520287Y-78324848D01*
X177552081Y-78277265D01*
X179218748Y-75390514D01*
X179244059Y-75339188D01*
X179273619Y-75228869D01*
X179273619Y-75114659D01*
X179244059Y-75004340D01*
X179186954Y-74905431D01*
X179106195Y-74824672D01*
X179007286Y-74767567D01*
X178896967Y-74738007D01*
X178782757Y-74738007D01*
X178672438Y-74767567D01*
X178573529Y-74824672D01*
X178492770Y-74905431D01*
X178460976Y-74953014D01*
X177013058Y-77460879D01*
X174595405Y-76065045D01*
X175543322Y-74423206D01*
X175568633Y-74371880D01*
X175598193Y-74261561D01*
X175598193Y-74147351D01*
X175568633Y-74037032D01*
X175511528Y-73938123D01*
X175430769Y-73857364D01*
X175331860Y-73800259D01*
X175221541Y-73770699D01*
X175107331Y-73770699D01*
X174997012Y-73800258D01*
X174898103Y-73857364D01*
X174817344Y-73938123D01*
X174785550Y-73985706D01*
X173837633Y-75627545D01*
X171708653Y-74398378D01*
X173156570Y-71890514D01*
X173181881Y-71839188D01*
X173211441Y-71728869D01*
X173211441Y-71614659D01*
X173181881Y-71504340D01*
X173124776Y-71405431D01*
X173044017Y-71324672D01*
X172945108Y-71267567D01*
X172834789Y-71238007D01*
X172720579Y-71238007D01*
X172610260Y-71267567D01*
X172511351Y-71324672D01*
X172430592Y-71405431D01*
X172398798Y-71453014D01*
X170732132Y-74339765D01*
X170706821Y-74391091D01*
X170677261Y-74501410D01*
X169740705Y-74501410D01*
X172842548Y-69128861D01*
X173843677Y-69128861D01*
X173843927Y-69129810D01*
X173843927Y-69130793D01*
X173858467Y-69185057D01*
X173872746Y-69239311D01*
X173873232Y-69240162D01*
X173873487Y-69241112D01*
X173901586Y-69289782D01*
X173929410Y-69338473D01*
X173930100Y-69339169D01*
X173930592Y-69340021D01*
X173970278Y-69379707D01*
X174009808Y-69419591D01*
X174010657Y-69420086D01*
X174011351Y-69420780D01*
X174058934Y-69452574D01*
X180121112Y-72952574D01*
X180172438Y-72977885D01*
X180282757Y-73007445D01*
X180396967Y-73007445D01*
X180507286Y-72977885D01*
X180606195Y-72920780D01*
X180686954Y-72840021D01*
X180744059Y-72741112D01*
X180773619Y-72630793D01*
X180773619Y-72516583D01*
X180744059Y-72406264D01*
X180686954Y-72307355D01*
X180606195Y-72226596D01*
X180558612Y-72194802D01*
X175923154Y-69518519D01*
X182337914Y-69547083D01*
X182395035Y-69543594D01*
X182395985Y-69543344D01*
X182396967Y-69543344D01*
X182451231Y-69528803D01*
X182505485Y-69514525D01*
X182506336Y-69514038D01*
X182507286Y-69513784D01*
X182555956Y-69485684D01*
X182604647Y-69457861D01*
X182605343Y-69457170D01*
X182606195Y-69456679D01*
X182645881Y-69416992D01*
X182685765Y-69377463D01*
X182686260Y-69376613D01*
X182686954Y-69375920D01*
X182714982Y-69327373D01*
X182743310Y-69278809D01*
X182743568Y-69277860D01*
X182744059Y-69277011D01*
X182758558Y-69222898D01*
X182773361Y-69168623D01*
X182773365Y-69167638D01*
X182773619Y-69166692D01*
X182773619Y-69110619D01*
X182773869Y-69054414D01*
X182773619Y-69053464D01*
X182773619Y-69052482D01*
X182759107Y-68998323D01*
X182744801Y-68943964D01*
X182744312Y-68943109D01*
X182744059Y-68942163D01*
X182716056Y-68893661D01*
X182688137Y-68844802D01*
X182687444Y-68844102D01*
X182686954Y-68843254D01*
X182647322Y-68803622D01*
X182607738Y-68763684D01*
X182606888Y-68763188D01*
X182606195Y-68762495D01*
X182558612Y-68730701D01*
X176496434Y-65230701D01*
X176445108Y-65205390D01*
X176334789Y-65175830D01*
X176220579Y-65175830D01*
X176110260Y-65205390D01*
X176011351Y-65262495D01*
X175930592Y-65343254D01*
X175873487Y-65442163D01*
X175843927Y-65552482D01*
X175843927Y-65666692D01*
X175873487Y-65777011D01*
X175930592Y-65875920D01*
X176011351Y-65956679D01*
X176058934Y-65988473D01*
X180694391Y-68664755D01*
X174279632Y-68636192D01*
X174222511Y-68639681D01*
X174221561Y-68639931D01*
X174220579Y-68639931D01*
X174166314Y-68654471D01*
X174112061Y-68668750D01*
X174111209Y-68669236D01*
X174110260Y-68669491D01*
X174061589Y-68697590D01*
X174012899Y-68725414D01*
X174012202Y-68726104D01*
X174011351Y-68726596D01*
X173971664Y-68766282D01*
X173931781Y-68805812D01*
X173931285Y-68806661D01*
X173930592Y-68807355D01*
X173902563Y-68855901D01*
X173874236Y-68904466D01*
X173873977Y-68905414D01*
X173873487Y-68906264D01*
X173858959Y-68960482D01*
X173844186Y-69014652D01*
X173844181Y-69015632D01*
X173843927Y-69016583D01*
X173843927Y-69072766D01*
X173843677Y-69128861D01*
X172842548Y-69128861D01*
X176574038Y-62665730D01*
X177510594Y-62665730D01*
X177510594Y-62779940D01*
X177540154Y-62890259D01*
X177597259Y-62989168D01*
X177678018Y-63069927D01*
X177725601Y-63101721D01*
X183787778Y-66601721D01*
X183839104Y-66627032D01*
X183949423Y-66656592D01*
X184063633Y-66656592D01*
X184173952Y-66627032D01*
X184272861Y-66569927D01*
X184353620Y-66489168D01*
X184410725Y-66390259D01*
X184440285Y-66279940D01*
X184440285Y-66165730D01*
X184410725Y-66055411D01*
X184353620Y-65956502D01*
X184272861Y-65875743D01*
X184225278Y-65843949D01*
X181784141Y-64434557D01*
X181595578Y-63730830D01*
X186058859Y-63193093D01*
X186115107Y-63182546D01*
X186221098Y-63140003D01*
X186312466Y-63071477D01*
X186382985Y-62981637D01*
X186427849Y-62876608D01*
X186444001Y-62763545D01*
X186430340Y-62650155D01*
X186387796Y-62544164D01*
X186319270Y-62452796D01*
X186229431Y-62382277D01*
X186124401Y-62337413D01*
X186011339Y-62321261D01*
X185954196Y-62324375D01*
X181366812Y-62877063D01*
X180366944Y-59145501D01*
X180348548Y-59091310D01*
X180291443Y-58992401D01*
X180210684Y-58911642D01*
X180111775Y-58854537D01*
X180001456Y-58824977D01*
X179887246Y-58824977D01*
X179776927Y-58854537D01*
X179678018Y-58911642D01*
X179597259Y-58992401D01*
X179540154Y-59091310D01*
X179510594Y-59201629D01*
X179510594Y-59315839D01*
X179521758Y-59371967D01*
X180712489Y-63815839D01*
X178163101Y-62343949D01*
X178111775Y-62318638D01*
X178001456Y-62289078D01*
X177887246Y-62289078D01*
X177776927Y-62318638D01*
X177678018Y-62375743D01*
X177597259Y-62456502D01*
X177540154Y-62555411D01*
X177510594Y-62665730D01*
X176574038Y-62665730D01*
X180074037Y-56603553D01*
X181010594Y-56603553D01*
X181010594Y-56717763D01*
X181040154Y-56828082D01*
X181097259Y-56926991D01*
X181178018Y-57007750D01*
X181225601Y-57039544D01*
X187287778Y-60539544D01*
X187339104Y-60564855D01*
X187449423Y-60594415D01*
X187563633Y-60594415D01*
X187673952Y-60564855D01*
X187772861Y-60507750D01*
X187853620Y-60426991D01*
X187885414Y-60379408D01*
X189552081Y-57492656D01*
X189577392Y-57441330D01*
X189606952Y-57331011D01*
X189606952Y-57216801D01*
X189577392Y-57106482D01*
X189520287Y-57007573D01*
X189439528Y-56926814D01*
X189340619Y-56869709D01*
X189230300Y-56840149D01*
X189116090Y-56840149D01*
X189005771Y-56869709D01*
X188906862Y-56926814D01*
X188826103Y-57007573D01*
X188794309Y-57055156D01*
X187346391Y-59563021D01*
X184928737Y-58167188D01*
X185876655Y-56525348D01*
X185901966Y-56474022D01*
X185931526Y-56363703D01*
X185931526Y-56249493D01*
X185901966Y-56139174D01*
X185844861Y-56040265D01*
X185764102Y-55959506D01*
X185665193Y-55902401D01*
X185554874Y-55872841D01*
X185440664Y-55872841D01*
X185330345Y-55902400D01*
X185231436Y-55959506D01*
X185150677Y-56040265D01*
X185118883Y-56087848D01*
X184170965Y-57729688D01*
X182041986Y-56500521D01*
X183489903Y-53992656D01*
X183515214Y-53941330D01*
X183544774Y-53831011D01*
X183544774Y-53716800D01*
X183515214Y-53606482D01*
X183458109Y-53507573D01*
X183377350Y-53426813D01*
X183278441Y-53369708D01*
X183168122Y-53340149D01*
X183053912Y-53340149D01*
X182943593Y-53369709D01*
X182844684Y-53426814D01*
X182763925Y-53507573D01*
X182732131Y-53555156D01*
X181065465Y-56441908D01*
X181040154Y-56493234D01*
X181010594Y-56603553D01*
X180074037Y-56603553D01*
X182729875Y-52003506D01*
X183675201Y-52003506D01*
X183680126Y-52117610D01*
X183714415Y-52226552D01*
X183775731Y-52322907D01*
X183859897Y-52400109D01*
X183961177Y-52452896D01*
X184072667Y-52477672D01*
X184129881Y-52478949D01*
X188344691Y-52297049D01*
X191121112Y-53900016D01*
X191172438Y-53925327D01*
X191282757Y-53954887D01*
X191396967Y-53954887D01*
X191507286Y-53925327D01*
X191606195Y-53868222D01*
X191686954Y-53787463D01*
X191744059Y-53688554D01*
X191773619Y-53578235D01*
X191773619Y-53464025D01*
X191744059Y-53353706D01*
X191686954Y-53254797D01*
X191606195Y-53174038D01*
X191558612Y-53142244D01*
X188782192Y-51539277D01*
X186832316Y-47798194D01*
X186802603Y-47749284D01*
X186725401Y-47665118D01*
X186629046Y-47603802D01*
X186520104Y-47569513D01*
X186406000Y-47564588D01*
X186294509Y-47589364D01*
X186193230Y-47642151D01*
X186109064Y-47719353D01*
X186047748Y-47815708D01*
X186013459Y-47924650D01*
X186008534Y-48038754D01*
X186033310Y-48150245D01*
X186056384Y-48202614D01*
X187747385Y-51447013D01*
X184092153Y-51604763D01*
X184035263Y-51610965D01*
X183926321Y-51645254D01*
X183829966Y-51706570D01*
X183752764Y-51790736D01*
X183699977Y-51892016D01*
X183675201Y-52003506D01*
X182729875Y-52003506D01*
X185998685Y-46341762D01*
X194743137Y-51390373D01*
G37*
D11*
X172757200Y-118659523D02*
X172804819Y-118516666D01*
X172804819Y-118516666D02*
X172804819Y-118278571D01*
X172804819Y-118278571D02*
X172757200Y-118183333D01*
X172757200Y-118183333D02*
X172709580Y-118135714D01*
X172709580Y-118135714D02*
X172614342Y-118088095D01*
X172614342Y-118088095D02*
X172519104Y-118088095D01*
X172519104Y-118088095D02*
X172423866Y-118135714D01*
X172423866Y-118135714D02*
X172376247Y-118183333D01*
X172376247Y-118183333D02*
X172328628Y-118278571D01*
X172328628Y-118278571D02*
X172281009Y-118469047D01*
X172281009Y-118469047D02*
X172233390Y-118564285D01*
X172233390Y-118564285D02*
X172185771Y-118611904D01*
X172185771Y-118611904D02*
X172090533Y-118659523D01*
X172090533Y-118659523D02*
X171995295Y-118659523D01*
X171995295Y-118659523D02*
X171900057Y-118611904D01*
X171900057Y-118611904D02*
X171852438Y-118564285D01*
X171852438Y-118564285D02*
X171804819Y-118469047D01*
X171804819Y-118469047D02*
X171804819Y-118230952D01*
X171804819Y-118230952D02*
X171852438Y-118088095D01*
X171804819Y-117754761D02*
X172804819Y-117516666D01*
X172804819Y-117516666D02*
X172090533Y-117326190D01*
X172090533Y-117326190D02*
X172804819Y-117135714D01*
X172804819Y-117135714D02*
X171804819Y-116897619D01*
X172804819Y-115992857D02*
X172804819Y-116564285D01*
X172804819Y-116278571D02*
X171804819Y-116278571D01*
X171804819Y-116278571D02*
X171947676Y-116373809D01*
X171947676Y-116373809D02*
X172042914Y-116469047D01*
X172042914Y-116469047D02*
X172090533Y-116564285D01*
X172804819Y-115516666D02*
X172804819Y-115326190D01*
X172804819Y-115326190D02*
X172757200Y-115230952D01*
X172757200Y-115230952D02*
X172709580Y-115183333D01*
X172709580Y-115183333D02*
X172566723Y-115088095D01*
X172566723Y-115088095D02*
X172376247Y-115040476D01*
X172376247Y-115040476D02*
X171995295Y-115040476D01*
X171995295Y-115040476D02*
X171900057Y-115088095D01*
X171900057Y-115088095D02*
X171852438Y-115135714D01*
X171852438Y-115135714D02*
X171804819Y-115230952D01*
X171804819Y-115230952D02*
X171804819Y-115421428D01*
X171804819Y-115421428D02*
X171852438Y-115516666D01*
X171852438Y-115516666D02*
X171900057Y-115564285D01*
X171900057Y-115564285D02*
X171995295Y-115611904D01*
X171995295Y-115611904D02*
X172233390Y-115611904D01*
X172233390Y-115611904D02*
X172328628Y-115564285D01*
X172328628Y-115564285D02*
X172376247Y-115516666D01*
X172376247Y-115516666D02*
X172423866Y-115421428D01*
X172423866Y-115421428D02*
X172423866Y-115230952D01*
X172423866Y-115230952D02*
X172376247Y-115135714D01*
X172376247Y-115135714D02*
X172328628Y-115088095D01*
X172328628Y-115088095D02*
X172233390Y-115040476D01*
X185757200Y-92659523D02*
X185804819Y-92516666D01*
X185804819Y-92516666D02*
X185804819Y-92278571D01*
X185804819Y-92278571D02*
X185757200Y-92183333D01*
X185757200Y-92183333D02*
X185709580Y-92135714D01*
X185709580Y-92135714D02*
X185614342Y-92088095D01*
X185614342Y-92088095D02*
X185519104Y-92088095D01*
X185519104Y-92088095D02*
X185423866Y-92135714D01*
X185423866Y-92135714D02*
X185376247Y-92183333D01*
X185376247Y-92183333D02*
X185328628Y-92278571D01*
X185328628Y-92278571D02*
X185281009Y-92469047D01*
X185281009Y-92469047D02*
X185233390Y-92564285D01*
X185233390Y-92564285D02*
X185185771Y-92611904D01*
X185185771Y-92611904D02*
X185090533Y-92659523D01*
X185090533Y-92659523D02*
X184995295Y-92659523D01*
X184995295Y-92659523D02*
X184900057Y-92611904D01*
X184900057Y-92611904D02*
X184852438Y-92564285D01*
X184852438Y-92564285D02*
X184804819Y-92469047D01*
X184804819Y-92469047D02*
X184804819Y-92230952D01*
X184804819Y-92230952D02*
X184852438Y-92088095D01*
X184804819Y-91754761D02*
X185804819Y-91516666D01*
X185804819Y-91516666D02*
X185090533Y-91326190D01*
X185090533Y-91326190D02*
X185804819Y-91135714D01*
X185804819Y-91135714D02*
X184804819Y-90897619D01*
X185804819Y-89992857D02*
X185804819Y-90564285D01*
X185804819Y-90278571D02*
X184804819Y-90278571D01*
X184804819Y-90278571D02*
X184947676Y-90373809D01*
X184947676Y-90373809D02*
X185042914Y-90469047D01*
X185042914Y-90469047D02*
X185090533Y-90564285D01*
X184900057Y-89611904D02*
X184852438Y-89564285D01*
X184852438Y-89564285D02*
X184804819Y-89469047D01*
X184804819Y-89469047D02*
X184804819Y-89230952D01*
X184804819Y-89230952D02*
X184852438Y-89135714D01*
X184852438Y-89135714D02*
X184900057Y-89088095D01*
X184900057Y-89088095D02*
X184995295Y-89040476D01*
X184995295Y-89040476D02*
X185090533Y-89040476D01*
X185090533Y-89040476D02*
X185233390Y-89088095D01*
X185233390Y-89088095D02*
X185804819Y-89659523D01*
X185804819Y-89659523D02*
X185804819Y-89040476D01*
X159757200Y-118659523D02*
X159804819Y-118516666D01*
X159804819Y-118516666D02*
X159804819Y-118278571D01*
X159804819Y-118278571D02*
X159757200Y-118183333D01*
X159757200Y-118183333D02*
X159709580Y-118135714D01*
X159709580Y-118135714D02*
X159614342Y-118088095D01*
X159614342Y-118088095D02*
X159519104Y-118088095D01*
X159519104Y-118088095D02*
X159423866Y-118135714D01*
X159423866Y-118135714D02*
X159376247Y-118183333D01*
X159376247Y-118183333D02*
X159328628Y-118278571D01*
X159328628Y-118278571D02*
X159281009Y-118469047D01*
X159281009Y-118469047D02*
X159233390Y-118564285D01*
X159233390Y-118564285D02*
X159185771Y-118611904D01*
X159185771Y-118611904D02*
X159090533Y-118659523D01*
X159090533Y-118659523D02*
X158995295Y-118659523D01*
X158995295Y-118659523D02*
X158900057Y-118611904D01*
X158900057Y-118611904D02*
X158852438Y-118564285D01*
X158852438Y-118564285D02*
X158804819Y-118469047D01*
X158804819Y-118469047D02*
X158804819Y-118230952D01*
X158804819Y-118230952D02*
X158852438Y-118088095D01*
X158804819Y-117754761D02*
X159804819Y-117516666D01*
X159804819Y-117516666D02*
X159090533Y-117326190D01*
X159090533Y-117326190D02*
X159804819Y-117135714D01*
X159804819Y-117135714D02*
X158804819Y-116897619D01*
X159804819Y-115992857D02*
X159804819Y-116564285D01*
X159804819Y-116278571D02*
X158804819Y-116278571D01*
X158804819Y-116278571D02*
X158947676Y-116373809D01*
X158947676Y-116373809D02*
X159042914Y-116469047D01*
X159042914Y-116469047D02*
X159090533Y-116564285D01*
X159233390Y-115421428D02*
X159185771Y-115516666D01*
X159185771Y-115516666D02*
X159138152Y-115564285D01*
X159138152Y-115564285D02*
X159042914Y-115611904D01*
X159042914Y-115611904D02*
X158995295Y-115611904D01*
X158995295Y-115611904D02*
X158900057Y-115564285D01*
X158900057Y-115564285D02*
X158852438Y-115516666D01*
X158852438Y-115516666D02*
X158804819Y-115421428D01*
X158804819Y-115421428D02*
X158804819Y-115230952D01*
X158804819Y-115230952D02*
X158852438Y-115135714D01*
X158852438Y-115135714D02*
X158900057Y-115088095D01*
X158900057Y-115088095D02*
X158995295Y-115040476D01*
X158995295Y-115040476D02*
X159042914Y-115040476D01*
X159042914Y-115040476D02*
X159138152Y-115088095D01*
X159138152Y-115088095D02*
X159185771Y-115135714D01*
X159185771Y-115135714D02*
X159233390Y-115230952D01*
X159233390Y-115230952D02*
X159233390Y-115421428D01*
X159233390Y-115421428D02*
X159281009Y-115516666D01*
X159281009Y-115516666D02*
X159328628Y-115564285D01*
X159328628Y-115564285D02*
X159423866Y-115611904D01*
X159423866Y-115611904D02*
X159614342Y-115611904D01*
X159614342Y-115611904D02*
X159709580Y-115564285D01*
X159709580Y-115564285D02*
X159757200Y-115516666D01*
X159757200Y-115516666D02*
X159804819Y-115421428D01*
X159804819Y-115421428D02*
X159804819Y-115230952D01*
X159804819Y-115230952D02*
X159757200Y-115135714D01*
X159757200Y-115135714D02*
X159709580Y-115088095D01*
X159709580Y-115088095D02*
X159614342Y-115040476D01*
X159614342Y-115040476D02*
X159423866Y-115040476D01*
X159423866Y-115040476D02*
X159328628Y-115088095D01*
X159328628Y-115088095D02*
X159281009Y-115135714D01*
X159281009Y-115135714D02*
X159233390Y-115230952D01*
X146757200Y-105659523D02*
X146804819Y-105516666D01*
X146804819Y-105516666D02*
X146804819Y-105278571D01*
X146804819Y-105278571D02*
X146757200Y-105183333D01*
X146757200Y-105183333D02*
X146709580Y-105135714D01*
X146709580Y-105135714D02*
X146614342Y-105088095D01*
X146614342Y-105088095D02*
X146519104Y-105088095D01*
X146519104Y-105088095D02*
X146423866Y-105135714D01*
X146423866Y-105135714D02*
X146376247Y-105183333D01*
X146376247Y-105183333D02*
X146328628Y-105278571D01*
X146328628Y-105278571D02*
X146281009Y-105469047D01*
X146281009Y-105469047D02*
X146233390Y-105564285D01*
X146233390Y-105564285D02*
X146185771Y-105611904D01*
X146185771Y-105611904D02*
X146090533Y-105659523D01*
X146090533Y-105659523D02*
X145995295Y-105659523D01*
X145995295Y-105659523D02*
X145900057Y-105611904D01*
X145900057Y-105611904D02*
X145852438Y-105564285D01*
X145852438Y-105564285D02*
X145804819Y-105469047D01*
X145804819Y-105469047D02*
X145804819Y-105230952D01*
X145804819Y-105230952D02*
X145852438Y-105088095D01*
X145804819Y-104754761D02*
X146804819Y-104516666D01*
X146804819Y-104516666D02*
X146090533Y-104326190D01*
X146090533Y-104326190D02*
X146804819Y-104135714D01*
X146804819Y-104135714D02*
X145804819Y-103897619D01*
X146804819Y-102992857D02*
X146804819Y-103564285D01*
X146804819Y-103278571D02*
X145804819Y-103278571D01*
X145804819Y-103278571D02*
X145947676Y-103373809D01*
X145947676Y-103373809D02*
X146042914Y-103469047D01*
X146042914Y-103469047D02*
X146090533Y-103564285D01*
X145804819Y-102659523D02*
X145804819Y-102040476D01*
X145804819Y-102040476D02*
X146185771Y-102373809D01*
X146185771Y-102373809D02*
X146185771Y-102230952D01*
X146185771Y-102230952D02*
X146233390Y-102135714D01*
X146233390Y-102135714D02*
X146281009Y-102088095D01*
X146281009Y-102088095D02*
X146376247Y-102040476D01*
X146376247Y-102040476D02*
X146614342Y-102040476D01*
X146614342Y-102040476D02*
X146709580Y-102088095D01*
X146709580Y-102088095D02*
X146757200Y-102135714D01*
X146757200Y-102135714D02*
X146804819Y-102230952D01*
X146804819Y-102230952D02*
X146804819Y-102516666D01*
X146804819Y-102516666D02*
X146757200Y-102611904D01*
X146757200Y-102611904D02*
X146709580Y-102659523D01*
X172757200Y-105659523D02*
X172804819Y-105516666D01*
X172804819Y-105516666D02*
X172804819Y-105278571D01*
X172804819Y-105278571D02*
X172757200Y-105183333D01*
X172757200Y-105183333D02*
X172709580Y-105135714D01*
X172709580Y-105135714D02*
X172614342Y-105088095D01*
X172614342Y-105088095D02*
X172519104Y-105088095D01*
X172519104Y-105088095D02*
X172423866Y-105135714D01*
X172423866Y-105135714D02*
X172376247Y-105183333D01*
X172376247Y-105183333D02*
X172328628Y-105278571D01*
X172328628Y-105278571D02*
X172281009Y-105469047D01*
X172281009Y-105469047D02*
X172233390Y-105564285D01*
X172233390Y-105564285D02*
X172185771Y-105611904D01*
X172185771Y-105611904D02*
X172090533Y-105659523D01*
X172090533Y-105659523D02*
X171995295Y-105659523D01*
X171995295Y-105659523D02*
X171900057Y-105611904D01*
X171900057Y-105611904D02*
X171852438Y-105564285D01*
X171852438Y-105564285D02*
X171804819Y-105469047D01*
X171804819Y-105469047D02*
X171804819Y-105230952D01*
X171804819Y-105230952D02*
X171852438Y-105088095D01*
X171804819Y-104754761D02*
X172804819Y-104516666D01*
X172804819Y-104516666D02*
X172090533Y-104326190D01*
X172090533Y-104326190D02*
X172804819Y-104135714D01*
X172804819Y-104135714D02*
X171804819Y-103897619D01*
X172804819Y-102992857D02*
X172804819Y-103564285D01*
X172804819Y-103278571D02*
X171804819Y-103278571D01*
X171804819Y-103278571D02*
X171947676Y-103373809D01*
X171947676Y-103373809D02*
X172042914Y-103469047D01*
X172042914Y-103469047D02*
X172090533Y-103564285D01*
X171804819Y-102088095D02*
X171804819Y-102564285D01*
X171804819Y-102564285D02*
X172281009Y-102611904D01*
X172281009Y-102611904D02*
X172233390Y-102564285D01*
X172233390Y-102564285D02*
X172185771Y-102469047D01*
X172185771Y-102469047D02*
X172185771Y-102230952D01*
X172185771Y-102230952D02*
X172233390Y-102135714D01*
X172233390Y-102135714D02*
X172281009Y-102088095D01*
X172281009Y-102088095D02*
X172376247Y-102040476D01*
X172376247Y-102040476D02*
X172614342Y-102040476D01*
X172614342Y-102040476D02*
X172709580Y-102088095D01*
X172709580Y-102088095D02*
X172757200Y-102135714D01*
X172757200Y-102135714D02*
X172804819Y-102230952D01*
X172804819Y-102230952D02*
X172804819Y-102469047D01*
X172804819Y-102469047D02*
X172757200Y-102564285D01*
X172757200Y-102564285D02*
X172709580Y-102611904D01*
X159757200Y-92659523D02*
X159804819Y-92516666D01*
X159804819Y-92516666D02*
X159804819Y-92278571D01*
X159804819Y-92278571D02*
X159757200Y-92183333D01*
X159757200Y-92183333D02*
X159709580Y-92135714D01*
X159709580Y-92135714D02*
X159614342Y-92088095D01*
X159614342Y-92088095D02*
X159519104Y-92088095D01*
X159519104Y-92088095D02*
X159423866Y-92135714D01*
X159423866Y-92135714D02*
X159376247Y-92183333D01*
X159376247Y-92183333D02*
X159328628Y-92278571D01*
X159328628Y-92278571D02*
X159281009Y-92469047D01*
X159281009Y-92469047D02*
X159233390Y-92564285D01*
X159233390Y-92564285D02*
X159185771Y-92611904D01*
X159185771Y-92611904D02*
X159090533Y-92659523D01*
X159090533Y-92659523D02*
X158995295Y-92659523D01*
X158995295Y-92659523D02*
X158900057Y-92611904D01*
X158900057Y-92611904D02*
X158852438Y-92564285D01*
X158852438Y-92564285D02*
X158804819Y-92469047D01*
X158804819Y-92469047D02*
X158804819Y-92230952D01*
X158804819Y-92230952D02*
X158852438Y-92088095D01*
X158804819Y-91754761D02*
X159804819Y-91516666D01*
X159804819Y-91516666D02*
X159090533Y-91326190D01*
X159090533Y-91326190D02*
X159804819Y-91135714D01*
X159804819Y-91135714D02*
X158804819Y-90897619D01*
X159804819Y-89992857D02*
X159804819Y-90564285D01*
X159804819Y-90278571D02*
X158804819Y-90278571D01*
X158804819Y-90278571D02*
X158947676Y-90373809D01*
X158947676Y-90373809D02*
X159042914Y-90469047D01*
X159042914Y-90469047D02*
X159090533Y-90564285D01*
X158804819Y-89373809D02*
X158804819Y-89278571D01*
X158804819Y-89278571D02*
X158852438Y-89183333D01*
X158852438Y-89183333D02*
X158900057Y-89135714D01*
X158900057Y-89135714D02*
X158995295Y-89088095D01*
X158995295Y-89088095D02*
X159185771Y-89040476D01*
X159185771Y-89040476D02*
X159423866Y-89040476D01*
X159423866Y-89040476D02*
X159614342Y-89088095D01*
X159614342Y-89088095D02*
X159709580Y-89135714D01*
X159709580Y-89135714D02*
X159757200Y-89183333D01*
X159757200Y-89183333D02*
X159804819Y-89278571D01*
X159804819Y-89278571D02*
X159804819Y-89373809D01*
X159804819Y-89373809D02*
X159757200Y-89469047D01*
X159757200Y-89469047D02*
X159709580Y-89516666D01*
X159709580Y-89516666D02*
X159614342Y-89564285D01*
X159614342Y-89564285D02*
X159423866Y-89611904D01*
X159423866Y-89611904D02*
X159185771Y-89611904D01*
X159185771Y-89611904D02*
X158995295Y-89564285D01*
X158995295Y-89564285D02*
X158900057Y-89516666D01*
X158900057Y-89516666D02*
X158852438Y-89469047D01*
X158852438Y-89469047D02*
X158804819Y-89373809D01*
X185757200Y-118659523D02*
X185804819Y-118516666D01*
X185804819Y-118516666D02*
X185804819Y-118278571D01*
X185804819Y-118278571D02*
X185757200Y-118183333D01*
X185757200Y-118183333D02*
X185709580Y-118135714D01*
X185709580Y-118135714D02*
X185614342Y-118088095D01*
X185614342Y-118088095D02*
X185519104Y-118088095D01*
X185519104Y-118088095D02*
X185423866Y-118135714D01*
X185423866Y-118135714D02*
X185376247Y-118183333D01*
X185376247Y-118183333D02*
X185328628Y-118278571D01*
X185328628Y-118278571D02*
X185281009Y-118469047D01*
X185281009Y-118469047D02*
X185233390Y-118564285D01*
X185233390Y-118564285D02*
X185185771Y-118611904D01*
X185185771Y-118611904D02*
X185090533Y-118659523D01*
X185090533Y-118659523D02*
X184995295Y-118659523D01*
X184995295Y-118659523D02*
X184900057Y-118611904D01*
X184900057Y-118611904D02*
X184852438Y-118564285D01*
X184852438Y-118564285D02*
X184804819Y-118469047D01*
X184804819Y-118469047D02*
X184804819Y-118230952D01*
X184804819Y-118230952D02*
X184852438Y-118088095D01*
X184804819Y-117754761D02*
X185804819Y-117516666D01*
X185804819Y-117516666D02*
X185090533Y-117326190D01*
X185090533Y-117326190D02*
X185804819Y-117135714D01*
X185804819Y-117135714D02*
X184804819Y-116897619D01*
X184900057Y-116564285D02*
X184852438Y-116516666D01*
X184852438Y-116516666D02*
X184804819Y-116421428D01*
X184804819Y-116421428D02*
X184804819Y-116183333D01*
X184804819Y-116183333D02*
X184852438Y-116088095D01*
X184852438Y-116088095D02*
X184900057Y-116040476D01*
X184900057Y-116040476D02*
X184995295Y-115992857D01*
X184995295Y-115992857D02*
X185090533Y-115992857D01*
X185090533Y-115992857D02*
X185233390Y-116040476D01*
X185233390Y-116040476D02*
X185804819Y-116611904D01*
X185804819Y-116611904D02*
X185804819Y-115992857D01*
X184804819Y-115373809D02*
X184804819Y-115278571D01*
X184804819Y-115278571D02*
X184852438Y-115183333D01*
X184852438Y-115183333D02*
X184900057Y-115135714D01*
X184900057Y-115135714D02*
X184995295Y-115088095D01*
X184995295Y-115088095D02*
X185185771Y-115040476D01*
X185185771Y-115040476D02*
X185423866Y-115040476D01*
X185423866Y-115040476D02*
X185614342Y-115088095D01*
X185614342Y-115088095D02*
X185709580Y-115135714D01*
X185709580Y-115135714D02*
X185757200Y-115183333D01*
X185757200Y-115183333D02*
X185804819Y-115278571D01*
X185804819Y-115278571D02*
X185804819Y-115373809D01*
X185804819Y-115373809D02*
X185757200Y-115469047D01*
X185757200Y-115469047D02*
X185709580Y-115516666D01*
X185709580Y-115516666D02*
X185614342Y-115564285D01*
X185614342Y-115564285D02*
X185423866Y-115611904D01*
X185423866Y-115611904D02*
X185185771Y-115611904D01*
X185185771Y-115611904D02*
X184995295Y-115564285D01*
X184995295Y-115564285D02*
X184900057Y-115516666D01*
X184900057Y-115516666D02*
X184852438Y-115469047D01*
X184852438Y-115469047D02*
X184804819Y-115373809D01*
X159757200Y-105659523D02*
X159804819Y-105516666D01*
X159804819Y-105516666D02*
X159804819Y-105278571D01*
X159804819Y-105278571D02*
X159757200Y-105183333D01*
X159757200Y-105183333D02*
X159709580Y-105135714D01*
X159709580Y-105135714D02*
X159614342Y-105088095D01*
X159614342Y-105088095D02*
X159519104Y-105088095D01*
X159519104Y-105088095D02*
X159423866Y-105135714D01*
X159423866Y-105135714D02*
X159376247Y-105183333D01*
X159376247Y-105183333D02*
X159328628Y-105278571D01*
X159328628Y-105278571D02*
X159281009Y-105469047D01*
X159281009Y-105469047D02*
X159233390Y-105564285D01*
X159233390Y-105564285D02*
X159185771Y-105611904D01*
X159185771Y-105611904D02*
X159090533Y-105659523D01*
X159090533Y-105659523D02*
X158995295Y-105659523D01*
X158995295Y-105659523D02*
X158900057Y-105611904D01*
X158900057Y-105611904D02*
X158852438Y-105564285D01*
X158852438Y-105564285D02*
X158804819Y-105469047D01*
X158804819Y-105469047D02*
X158804819Y-105230952D01*
X158804819Y-105230952D02*
X158852438Y-105088095D01*
X158804819Y-104754761D02*
X159804819Y-104516666D01*
X159804819Y-104516666D02*
X159090533Y-104326190D01*
X159090533Y-104326190D02*
X159804819Y-104135714D01*
X159804819Y-104135714D02*
X158804819Y-103897619D01*
X159804819Y-102992857D02*
X159804819Y-103564285D01*
X159804819Y-103278571D02*
X158804819Y-103278571D01*
X158804819Y-103278571D02*
X158947676Y-103373809D01*
X158947676Y-103373809D02*
X159042914Y-103469047D01*
X159042914Y-103469047D02*
X159090533Y-103564285D01*
X159138152Y-102135714D02*
X159804819Y-102135714D01*
X158757200Y-102373809D02*
X159471485Y-102611904D01*
X159471485Y-102611904D02*
X159471485Y-101992857D01*
X172757200Y-92659523D02*
X172804819Y-92516666D01*
X172804819Y-92516666D02*
X172804819Y-92278571D01*
X172804819Y-92278571D02*
X172757200Y-92183333D01*
X172757200Y-92183333D02*
X172709580Y-92135714D01*
X172709580Y-92135714D02*
X172614342Y-92088095D01*
X172614342Y-92088095D02*
X172519104Y-92088095D01*
X172519104Y-92088095D02*
X172423866Y-92135714D01*
X172423866Y-92135714D02*
X172376247Y-92183333D01*
X172376247Y-92183333D02*
X172328628Y-92278571D01*
X172328628Y-92278571D02*
X172281009Y-92469047D01*
X172281009Y-92469047D02*
X172233390Y-92564285D01*
X172233390Y-92564285D02*
X172185771Y-92611904D01*
X172185771Y-92611904D02*
X172090533Y-92659523D01*
X172090533Y-92659523D02*
X171995295Y-92659523D01*
X171995295Y-92659523D02*
X171900057Y-92611904D01*
X171900057Y-92611904D02*
X171852438Y-92564285D01*
X171852438Y-92564285D02*
X171804819Y-92469047D01*
X171804819Y-92469047D02*
X171804819Y-92230952D01*
X171804819Y-92230952D02*
X171852438Y-92088095D01*
X171804819Y-91754761D02*
X172804819Y-91516666D01*
X172804819Y-91516666D02*
X172090533Y-91326190D01*
X172090533Y-91326190D02*
X172804819Y-91135714D01*
X172804819Y-91135714D02*
X171804819Y-90897619D01*
X172804819Y-89992857D02*
X172804819Y-90564285D01*
X172804819Y-90278571D02*
X171804819Y-90278571D01*
X171804819Y-90278571D02*
X171947676Y-90373809D01*
X171947676Y-90373809D02*
X172042914Y-90469047D01*
X172042914Y-90469047D02*
X172090533Y-90564285D01*
X172804819Y-89040476D02*
X172804819Y-89611904D01*
X172804819Y-89326190D02*
X171804819Y-89326190D01*
X171804819Y-89326190D02*
X171947676Y-89421428D01*
X171947676Y-89421428D02*
X172042914Y-89516666D01*
X172042914Y-89516666D02*
X172090533Y-89611904D01*
X146757200Y-66183332D02*
X146804819Y-66040475D01*
X146804819Y-66040475D02*
X146804819Y-65802380D01*
X146804819Y-65802380D02*
X146757200Y-65707142D01*
X146757200Y-65707142D02*
X146709580Y-65659523D01*
X146709580Y-65659523D02*
X146614342Y-65611904D01*
X146614342Y-65611904D02*
X146519104Y-65611904D01*
X146519104Y-65611904D02*
X146423866Y-65659523D01*
X146423866Y-65659523D02*
X146376247Y-65707142D01*
X146376247Y-65707142D02*
X146328628Y-65802380D01*
X146328628Y-65802380D02*
X146281009Y-65992856D01*
X146281009Y-65992856D02*
X146233390Y-66088094D01*
X146233390Y-66088094D02*
X146185771Y-66135713D01*
X146185771Y-66135713D02*
X146090533Y-66183332D01*
X146090533Y-66183332D02*
X145995295Y-66183332D01*
X145995295Y-66183332D02*
X145900057Y-66135713D01*
X145900057Y-66135713D02*
X145852438Y-66088094D01*
X145852438Y-66088094D02*
X145804819Y-65992856D01*
X145804819Y-65992856D02*
X145804819Y-65754761D01*
X145804819Y-65754761D02*
X145852438Y-65611904D01*
X145804819Y-65278570D02*
X146804819Y-65040475D01*
X146804819Y-65040475D02*
X146090533Y-64849999D01*
X146090533Y-64849999D02*
X146804819Y-64659523D01*
X146804819Y-64659523D02*
X145804819Y-64421428D01*
X146804819Y-63516666D02*
X146804819Y-64088094D01*
X146804819Y-63802380D02*
X145804819Y-63802380D01*
X145804819Y-63802380D02*
X145947676Y-63897618D01*
X145947676Y-63897618D02*
X146042914Y-63992856D01*
X146042914Y-63992856D02*
X146090533Y-64088094D01*
X172757200Y-66183332D02*
X172804819Y-66040475D01*
X172804819Y-66040475D02*
X172804819Y-65802380D01*
X172804819Y-65802380D02*
X172757200Y-65707142D01*
X172757200Y-65707142D02*
X172709580Y-65659523D01*
X172709580Y-65659523D02*
X172614342Y-65611904D01*
X172614342Y-65611904D02*
X172519104Y-65611904D01*
X172519104Y-65611904D02*
X172423866Y-65659523D01*
X172423866Y-65659523D02*
X172376247Y-65707142D01*
X172376247Y-65707142D02*
X172328628Y-65802380D01*
X172328628Y-65802380D02*
X172281009Y-65992856D01*
X172281009Y-65992856D02*
X172233390Y-66088094D01*
X172233390Y-66088094D02*
X172185771Y-66135713D01*
X172185771Y-66135713D02*
X172090533Y-66183332D01*
X172090533Y-66183332D02*
X171995295Y-66183332D01*
X171995295Y-66183332D02*
X171900057Y-66135713D01*
X171900057Y-66135713D02*
X171852438Y-66088094D01*
X171852438Y-66088094D02*
X171804819Y-65992856D01*
X171804819Y-65992856D02*
X171804819Y-65754761D01*
X171804819Y-65754761D02*
X171852438Y-65611904D01*
X171804819Y-65278570D02*
X172804819Y-65040475D01*
X172804819Y-65040475D02*
X172090533Y-64849999D01*
X172090533Y-64849999D02*
X172804819Y-64659523D01*
X172804819Y-64659523D02*
X171804819Y-64421428D01*
X171804819Y-64135713D02*
X171804819Y-63516666D01*
X171804819Y-63516666D02*
X172185771Y-63849999D01*
X172185771Y-63849999D02*
X172185771Y-63707142D01*
X172185771Y-63707142D02*
X172233390Y-63611904D01*
X172233390Y-63611904D02*
X172281009Y-63564285D01*
X172281009Y-63564285D02*
X172376247Y-63516666D01*
X172376247Y-63516666D02*
X172614342Y-63516666D01*
X172614342Y-63516666D02*
X172709580Y-63564285D01*
X172709580Y-63564285D02*
X172757200Y-63611904D01*
X172757200Y-63611904D02*
X172804819Y-63707142D01*
X172804819Y-63707142D02*
X172804819Y-63992856D01*
X172804819Y-63992856D02*
X172757200Y-64088094D01*
X172757200Y-64088094D02*
X172709580Y-64135713D01*
X185757200Y-105659523D02*
X185804819Y-105516666D01*
X185804819Y-105516666D02*
X185804819Y-105278571D01*
X185804819Y-105278571D02*
X185757200Y-105183333D01*
X185757200Y-105183333D02*
X185709580Y-105135714D01*
X185709580Y-105135714D02*
X185614342Y-105088095D01*
X185614342Y-105088095D02*
X185519104Y-105088095D01*
X185519104Y-105088095D02*
X185423866Y-105135714D01*
X185423866Y-105135714D02*
X185376247Y-105183333D01*
X185376247Y-105183333D02*
X185328628Y-105278571D01*
X185328628Y-105278571D02*
X185281009Y-105469047D01*
X185281009Y-105469047D02*
X185233390Y-105564285D01*
X185233390Y-105564285D02*
X185185771Y-105611904D01*
X185185771Y-105611904D02*
X185090533Y-105659523D01*
X185090533Y-105659523D02*
X184995295Y-105659523D01*
X184995295Y-105659523D02*
X184900057Y-105611904D01*
X184900057Y-105611904D02*
X184852438Y-105564285D01*
X184852438Y-105564285D02*
X184804819Y-105469047D01*
X184804819Y-105469047D02*
X184804819Y-105230952D01*
X184804819Y-105230952D02*
X184852438Y-105088095D01*
X184804819Y-104754761D02*
X185804819Y-104516666D01*
X185804819Y-104516666D02*
X185090533Y-104326190D01*
X185090533Y-104326190D02*
X185804819Y-104135714D01*
X185804819Y-104135714D02*
X184804819Y-103897619D01*
X185804819Y-102992857D02*
X185804819Y-103564285D01*
X185804819Y-103278571D02*
X184804819Y-103278571D01*
X184804819Y-103278571D02*
X184947676Y-103373809D01*
X184947676Y-103373809D02*
X185042914Y-103469047D01*
X185042914Y-103469047D02*
X185090533Y-103564285D01*
X184804819Y-102135714D02*
X184804819Y-102326190D01*
X184804819Y-102326190D02*
X184852438Y-102421428D01*
X184852438Y-102421428D02*
X184900057Y-102469047D01*
X184900057Y-102469047D02*
X185042914Y-102564285D01*
X185042914Y-102564285D02*
X185233390Y-102611904D01*
X185233390Y-102611904D02*
X185614342Y-102611904D01*
X185614342Y-102611904D02*
X185709580Y-102564285D01*
X185709580Y-102564285D02*
X185757200Y-102516666D01*
X185757200Y-102516666D02*
X185804819Y-102421428D01*
X185804819Y-102421428D02*
X185804819Y-102230952D01*
X185804819Y-102230952D02*
X185757200Y-102135714D01*
X185757200Y-102135714D02*
X185709580Y-102088095D01*
X185709580Y-102088095D02*
X185614342Y-102040476D01*
X185614342Y-102040476D02*
X185376247Y-102040476D01*
X185376247Y-102040476D02*
X185281009Y-102088095D01*
X185281009Y-102088095D02*
X185233390Y-102135714D01*
X185233390Y-102135714D02*
X185185771Y-102230952D01*
X185185771Y-102230952D02*
X185185771Y-102421428D01*
X185185771Y-102421428D02*
X185233390Y-102516666D01*
X185233390Y-102516666D02*
X185281009Y-102564285D01*
X185281009Y-102564285D02*
X185376247Y-102611904D01*
X185757200Y-79183332D02*
X185804819Y-79040475D01*
X185804819Y-79040475D02*
X185804819Y-78802380D01*
X185804819Y-78802380D02*
X185757200Y-78707142D01*
X185757200Y-78707142D02*
X185709580Y-78659523D01*
X185709580Y-78659523D02*
X185614342Y-78611904D01*
X185614342Y-78611904D02*
X185519104Y-78611904D01*
X185519104Y-78611904D02*
X185423866Y-78659523D01*
X185423866Y-78659523D02*
X185376247Y-78707142D01*
X185376247Y-78707142D02*
X185328628Y-78802380D01*
X185328628Y-78802380D02*
X185281009Y-78992856D01*
X185281009Y-78992856D02*
X185233390Y-79088094D01*
X185233390Y-79088094D02*
X185185771Y-79135713D01*
X185185771Y-79135713D02*
X185090533Y-79183332D01*
X185090533Y-79183332D02*
X184995295Y-79183332D01*
X184995295Y-79183332D02*
X184900057Y-79135713D01*
X184900057Y-79135713D02*
X184852438Y-79088094D01*
X184852438Y-79088094D02*
X184804819Y-78992856D01*
X184804819Y-78992856D02*
X184804819Y-78754761D01*
X184804819Y-78754761D02*
X184852438Y-78611904D01*
X184804819Y-78278570D02*
X185804819Y-78040475D01*
X185804819Y-78040475D02*
X185090533Y-77849999D01*
X185090533Y-77849999D02*
X185804819Y-77659523D01*
X185804819Y-77659523D02*
X184804819Y-77421428D01*
X185233390Y-76897618D02*
X185185771Y-76992856D01*
X185185771Y-76992856D02*
X185138152Y-77040475D01*
X185138152Y-77040475D02*
X185042914Y-77088094D01*
X185042914Y-77088094D02*
X184995295Y-77088094D01*
X184995295Y-77088094D02*
X184900057Y-77040475D01*
X184900057Y-77040475D02*
X184852438Y-76992856D01*
X184852438Y-76992856D02*
X184804819Y-76897618D01*
X184804819Y-76897618D02*
X184804819Y-76707142D01*
X184804819Y-76707142D02*
X184852438Y-76611904D01*
X184852438Y-76611904D02*
X184900057Y-76564285D01*
X184900057Y-76564285D02*
X184995295Y-76516666D01*
X184995295Y-76516666D02*
X185042914Y-76516666D01*
X185042914Y-76516666D02*
X185138152Y-76564285D01*
X185138152Y-76564285D02*
X185185771Y-76611904D01*
X185185771Y-76611904D02*
X185233390Y-76707142D01*
X185233390Y-76707142D02*
X185233390Y-76897618D01*
X185233390Y-76897618D02*
X185281009Y-76992856D01*
X185281009Y-76992856D02*
X185328628Y-77040475D01*
X185328628Y-77040475D02*
X185423866Y-77088094D01*
X185423866Y-77088094D02*
X185614342Y-77088094D01*
X185614342Y-77088094D02*
X185709580Y-77040475D01*
X185709580Y-77040475D02*
X185757200Y-76992856D01*
X185757200Y-76992856D02*
X185804819Y-76897618D01*
X185804819Y-76897618D02*
X185804819Y-76707142D01*
X185804819Y-76707142D02*
X185757200Y-76611904D01*
X185757200Y-76611904D02*
X185709580Y-76564285D01*
X185709580Y-76564285D02*
X185614342Y-76516666D01*
X185614342Y-76516666D02*
X185423866Y-76516666D01*
X185423866Y-76516666D02*
X185328628Y-76564285D01*
X185328628Y-76564285D02*
X185281009Y-76611904D01*
X185281009Y-76611904D02*
X185233390Y-76707142D01*
X146757200Y-79183332D02*
X146804819Y-79040475D01*
X146804819Y-79040475D02*
X146804819Y-78802380D01*
X146804819Y-78802380D02*
X146757200Y-78707142D01*
X146757200Y-78707142D02*
X146709580Y-78659523D01*
X146709580Y-78659523D02*
X146614342Y-78611904D01*
X146614342Y-78611904D02*
X146519104Y-78611904D01*
X146519104Y-78611904D02*
X146423866Y-78659523D01*
X146423866Y-78659523D02*
X146376247Y-78707142D01*
X146376247Y-78707142D02*
X146328628Y-78802380D01*
X146328628Y-78802380D02*
X146281009Y-78992856D01*
X146281009Y-78992856D02*
X146233390Y-79088094D01*
X146233390Y-79088094D02*
X146185771Y-79135713D01*
X146185771Y-79135713D02*
X146090533Y-79183332D01*
X146090533Y-79183332D02*
X145995295Y-79183332D01*
X145995295Y-79183332D02*
X145900057Y-79135713D01*
X145900057Y-79135713D02*
X145852438Y-79088094D01*
X145852438Y-79088094D02*
X145804819Y-78992856D01*
X145804819Y-78992856D02*
X145804819Y-78754761D01*
X145804819Y-78754761D02*
X145852438Y-78611904D01*
X145804819Y-78278570D02*
X146804819Y-78040475D01*
X146804819Y-78040475D02*
X146090533Y-77849999D01*
X146090533Y-77849999D02*
X146804819Y-77659523D01*
X146804819Y-77659523D02*
X145804819Y-77421428D01*
X145804819Y-76564285D02*
X145804819Y-77040475D01*
X145804819Y-77040475D02*
X146281009Y-77088094D01*
X146281009Y-77088094D02*
X146233390Y-77040475D01*
X146233390Y-77040475D02*
X146185771Y-76945237D01*
X146185771Y-76945237D02*
X146185771Y-76707142D01*
X146185771Y-76707142D02*
X146233390Y-76611904D01*
X146233390Y-76611904D02*
X146281009Y-76564285D01*
X146281009Y-76564285D02*
X146376247Y-76516666D01*
X146376247Y-76516666D02*
X146614342Y-76516666D01*
X146614342Y-76516666D02*
X146709580Y-76564285D01*
X146709580Y-76564285D02*
X146757200Y-76611904D01*
X146757200Y-76611904D02*
X146804819Y-76707142D01*
X146804819Y-76707142D02*
X146804819Y-76945237D01*
X146804819Y-76945237D02*
X146757200Y-77040475D01*
X146757200Y-77040475D02*
X146709580Y-77088094D01*
X146757200Y-118659523D02*
X146804819Y-118516666D01*
X146804819Y-118516666D02*
X146804819Y-118278571D01*
X146804819Y-118278571D02*
X146757200Y-118183333D01*
X146757200Y-118183333D02*
X146709580Y-118135714D01*
X146709580Y-118135714D02*
X146614342Y-118088095D01*
X146614342Y-118088095D02*
X146519104Y-118088095D01*
X146519104Y-118088095D02*
X146423866Y-118135714D01*
X146423866Y-118135714D02*
X146376247Y-118183333D01*
X146376247Y-118183333D02*
X146328628Y-118278571D01*
X146328628Y-118278571D02*
X146281009Y-118469047D01*
X146281009Y-118469047D02*
X146233390Y-118564285D01*
X146233390Y-118564285D02*
X146185771Y-118611904D01*
X146185771Y-118611904D02*
X146090533Y-118659523D01*
X146090533Y-118659523D02*
X145995295Y-118659523D01*
X145995295Y-118659523D02*
X145900057Y-118611904D01*
X145900057Y-118611904D02*
X145852438Y-118564285D01*
X145852438Y-118564285D02*
X145804819Y-118469047D01*
X145804819Y-118469047D02*
X145804819Y-118230952D01*
X145804819Y-118230952D02*
X145852438Y-118088095D01*
X145804819Y-117754761D02*
X146804819Y-117516666D01*
X146804819Y-117516666D02*
X146090533Y-117326190D01*
X146090533Y-117326190D02*
X146804819Y-117135714D01*
X146804819Y-117135714D02*
X145804819Y-116897619D01*
X146804819Y-115992857D02*
X146804819Y-116564285D01*
X146804819Y-116278571D02*
X145804819Y-116278571D01*
X145804819Y-116278571D02*
X145947676Y-116373809D01*
X145947676Y-116373809D02*
X146042914Y-116469047D01*
X146042914Y-116469047D02*
X146090533Y-116564285D01*
X145804819Y-115659523D02*
X145804819Y-114992857D01*
X145804819Y-114992857D02*
X146804819Y-115421428D01*
X159757200Y-66183332D02*
X159804819Y-66040475D01*
X159804819Y-66040475D02*
X159804819Y-65802380D01*
X159804819Y-65802380D02*
X159757200Y-65707142D01*
X159757200Y-65707142D02*
X159709580Y-65659523D01*
X159709580Y-65659523D02*
X159614342Y-65611904D01*
X159614342Y-65611904D02*
X159519104Y-65611904D01*
X159519104Y-65611904D02*
X159423866Y-65659523D01*
X159423866Y-65659523D02*
X159376247Y-65707142D01*
X159376247Y-65707142D02*
X159328628Y-65802380D01*
X159328628Y-65802380D02*
X159281009Y-65992856D01*
X159281009Y-65992856D02*
X159233390Y-66088094D01*
X159233390Y-66088094D02*
X159185771Y-66135713D01*
X159185771Y-66135713D02*
X159090533Y-66183332D01*
X159090533Y-66183332D02*
X158995295Y-66183332D01*
X158995295Y-66183332D02*
X158900057Y-66135713D01*
X158900057Y-66135713D02*
X158852438Y-66088094D01*
X158852438Y-66088094D02*
X158804819Y-65992856D01*
X158804819Y-65992856D02*
X158804819Y-65754761D01*
X158804819Y-65754761D02*
X158852438Y-65611904D01*
X158804819Y-65278570D02*
X159804819Y-65040475D01*
X159804819Y-65040475D02*
X159090533Y-64849999D01*
X159090533Y-64849999D02*
X159804819Y-64659523D01*
X159804819Y-64659523D02*
X158804819Y-64421428D01*
X158900057Y-64088094D02*
X158852438Y-64040475D01*
X158852438Y-64040475D02*
X158804819Y-63945237D01*
X158804819Y-63945237D02*
X158804819Y-63707142D01*
X158804819Y-63707142D02*
X158852438Y-63611904D01*
X158852438Y-63611904D02*
X158900057Y-63564285D01*
X158900057Y-63564285D02*
X158995295Y-63516666D01*
X158995295Y-63516666D02*
X159090533Y-63516666D01*
X159090533Y-63516666D02*
X159233390Y-63564285D01*
X159233390Y-63564285D02*
X159804819Y-64135713D01*
X159804819Y-64135713D02*
X159804819Y-63516666D01*
X159757200Y-79183332D02*
X159804819Y-79040475D01*
X159804819Y-79040475D02*
X159804819Y-78802380D01*
X159804819Y-78802380D02*
X159757200Y-78707142D01*
X159757200Y-78707142D02*
X159709580Y-78659523D01*
X159709580Y-78659523D02*
X159614342Y-78611904D01*
X159614342Y-78611904D02*
X159519104Y-78611904D01*
X159519104Y-78611904D02*
X159423866Y-78659523D01*
X159423866Y-78659523D02*
X159376247Y-78707142D01*
X159376247Y-78707142D02*
X159328628Y-78802380D01*
X159328628Y-78802380D02*
X159281009Y-78992856D01*
X159281009Y-78992856D02*
X159233390Y-79088094D01*
X159233390Y-79088094D02*
X159185771Y-79135713D01*
X159185771Y-79135713D02*
X159090533Y-79183332D01*
X159090533Y-79183332D02*
X158995295Y-79183332D01*
X158995295Y-79183332D02*
X158900057Y-79135713D01*
X158900057Y-79135713D02*
X158852438Y-79088094D01*
X158852438Y-79088094D02*
X158804819Y-78992856D01*
X158804819Y-78992856D02*
X158804819Y-78754761D01*
X158804819Y-78754761D02*
X158852438Y-78611904D01*
X158804819Y-78278570D02*
X159804819Y-78040475D01*
X159804819Y-78040475D02*
X159090533Y-77849999D01*
X159090533Y-77849999D02*
X159804819Y-77659523D01*
X159804819Y-77659523D02*
X158804819Y-77421428D01*
X158804819Y-76611904D02*
X158804819Y-76802380D01*
X158804819Y-76802380D02*
X158852438Y-76897618D01*
X158852438Y-76897618D02*
X158900057Y-76945237D01*
X158900057Y-76945237D02*
X159042914Y-77040475D01*
X159042914Y-77040475D02*
X159233390Y-77088094D01*
X159233390Y-77088094D02*
X159614342Y-77088094D01*
X159614342Y-77088094D02*
X159709580Y-77040475D01*
X159709580Y-77040475D02*
X159757200Y-76992856D01*
X159757200Y-76992856D02*
X159804819Y-76897618D01*
X159804819Y-76897618D02*
X159804819Y-76707142D01*
X159804819Y-76707142D02*
X159757200Y-76611904D01*
X159757200Y-76611904D02*
X159709580Y-76564285D01*
X159709580Y-76564285D02*
X159614342Y-76516666D01*
X159614342Y-76516666D02*
X159376247Y-76516666D01*
X159376247Y-76516666D02*
X159281009Y-76564285D01*
X159281009Y-76564285D02*
X159233390Y-76611904D01*
X159233390Y-76611904D02*
X159185771Y-76707142D01*
X159185771Y-76707142D02*
X159185771Y-76897618D01*
X159185771Y-76897618D02*
X159233390Y-76992856D01*
X159233390Y-76992856D02*
X159281009Y-77040475D01*
X159281009Y-77040475D02*
X159376247Y-77088094D01*
X185757200Y-66183332D02*
X185804819Y-66040475D01*
X185804819Y-66040475D02*
X185804819Y-65802380D01*
X185804819Y-65802380D02*
X185757200Y-65707142D01*
X185757200Y-65707142D02*
X185709580Y-65659523D01*
X185709580Y-65659523D02*
X185614342Y-65611904D01*
X185614342Y-65611904D02*
X185519104Y-65611904D01*
X185519104Y-65611904D02*
X185423866Y-65659523D01*
X185423866Y-65659523D02*
X185376247Y-65707142D01*
X185376247Y-65707142D02*
X185328628Y-65802380D01*
X185328628Y-65802380D02*
X185281009Y-65992856D01*
X185281009Y-65992856D02*
X185233390Y-66088094D01*
X185233390Y-66088094D02*
X185185771Y-66135713D01*
X185185771Y-66135713D02*
X185090533Y-66183332D01*
X185090533Y-66183332D02*
X184995295Y-66183332D01*
X184995295Y-66183332D02*
X184900057Y-66135713D01*
X184900057Y-66135713D02*
X184852438Y-66088094D01*
X184852438Y-66088094D02*
X184804819Y-65992856D01*
X184804819Y-65992856D02*
X184804819Y-65754761D01*
X184804819Y-65754761D02*
X184852438Y-65611904D01*
X184804819Y-65278570D02*
X185804819Y-65040475D01*
X185804819Y-65040475D02*
X185090533Y-64849999D01*
X185090533Y-64849999D02*
X185804819Y-64659523D01*
X185804819Y-64659523D02*
X184804819Y-64421428D01*
X185138152Y-63611904D02*
X185804819Y-63611904D01*
X184757200Y-63849999D02*
X185471485Y-64088094D01*
X185471485Y-64088094D02*
X185471485Y-63469047D01*
X172757200Y-79183332D02*
X172804819Y-79040475D01*
X172804819Y-79040475D02*
X172804819Y-78802380D01*
X172804819Y-78802380D02*
X172757200Y-78707142D01*
X172757200Y-78707142D02*
X172709580Y-78659523D01*
X172709580Y-78659523D02*
X172614342Y-78611904D01*
X172614342Y-78611904D02*
X172519104Y-78611904D01*
X172519104Y-78611904D02*
X172423866Y-78659523D01*
X172423866Y-78659523D02*
X172376247Y-78707142D01*
X172376247Y-78707142D02*
X172328628Y-78802380D01*
X172328628Y-78802380D02*
X172281009Y-78992856D01*
X172281009Y-78992856D02*
X172233390Y-79088094D01*
X172233390Y-79088094D02*
X172185771Y-79135713D01*
X172185771Y-79135713D02*
X172090533Y-79183332D01*
X172090533Y-79183332D02*
X171995295Y-79183332D01*
X171995295Y-79183332D02*
X171900057Y-79135713D01*
X171900057Y-79135713D02*
X171852438Y-79088094D01*
X171852438Y-79088094D02*
X171804819Y-78992856D01*
X171804819Y-78992856D02*
X171804819Y-78754761D01*
X171804819Y-78754761D02*
X171852438Y-78611904D01*
X171804819Y-78278570D02*
X172804819Y-78040475D01*
X172804819Y-78040475D02*
X172090533Y-77849999D01*
X172090533Y-77849999D02*
X172804819Y-77659523D01*
X172804819Y-77659523D02*
X171804819Y-77421428D01*
X171804819Y-77135713D02*
X171804819Y-76469047D01*
X171804819Y-76469047D02*
X172804819Y-76897618D01*
X146757200Y-92183332D02*
X146804819Y-92040475D01*
X146804819Y-92040475D02*
X146804819Y-91802380D01*
X146804819Y-91802380D02*
X146757200Y-91707142D01*
X146757200Y-91707142D02*
X146709580Y-91659523D01*
X146709580Y-91659523D02*
X146614342Y-91611904D01*
X146614342Y-91611904D02*
X146519104Y-91611904D01*
X146519104Y-91611904D02*
X146423866Y-91659523D01*
X146423866Y-91659523D02*
X146376247Y-91707142D01*
X146376247Y-91707142D02*
X146328628Y-91802380D01*
X146328628Y-91802380D02*
X146281009Y-91992856D01*
X146281009Y-91992856D02*
X146233390Y-92088094D01*
X146233390Y-92088094D02*
X146185771Y-92135713D01*
X146185771Y-92135713D02*
X146090533Y-92183332D01*
X146090533Y-92183332D02*
X145995295Y-92183332D01*
X145995295Y-92183332D02*
X145900057Y-92135713D01*
X145900057Y-92135713D02*
X145852438Y-92088094D01*
X145852438Y-92088094D02*
X145804819Y-91992856D01*
X145804819Y-91992856D02*
X145804819Y-91754761D01*
X145804819Y-91754761D02*
X145852438Y-91611904D01*
X145804819Y-91278570D02*
X146804819Y-91040475D01*
X146804819Y-91040475D02*
X146090533Y-90849999D01*
X146090533Y-90849999D02*
X146804819Y-90659523D01*
X146804819Y-90659523D02*
X145804819Y-90421428D01*
X146804819Y-89992856D02*
X146804819Y-89802380D01*
X146804819Y-89802380D02*
X146757200Y-89707142D01*
X146757200Y-89707142D02*
X146709580Y-89659523D01*
X146709580Y-89659523D02*
X146566723Y-89564285D01*
X146566723Y-89564285D02*
X146376247Y-89516666D01*
X146376247Y-89516666D02*
X145995295Y-89516666D01*
X145995295Y-89516666D02*
X145900057Y-89564285D01*
X145900057Y-89564285D02*
X145852438Y-89611904D01*
X145852438Y-89611904D02*
X145804819Y-89707142D01*
X145804819Y-89707142D02*
X145804819Y-89897618D01*
X145804819Y-89897618D02*
X145852438Y-89992856D01*
X145852438Y-89992856D02*
X145900057Y-90040475D01*
X145900057Y-90040475D02*
X145995295Y-90088094D01*
X145995295Y-90088094D02*
X146233390Y-90088094D01*
X146233390Y-90088094D02*
X146328628Y-90040475D01*
X146328628Y-90040475D02*
X146376247Y-89992856D01*
X146376247Y-89992856D02*
X146423866Y-89897618D01*
X146423866Y-89897618D02*
X146423866Y-89707142D01*
X146423866Y-89707142D02*
X146376247Y-89611904D01*
X146376247Y-89611904D02*
X146328628Y-89564285D01*
X146328628Y-89564285D02*
X146233390Y-89516666D01*
D12*
%TO.C,SW19*%
X173350000Y-118100000D02*
X173350000Y-115600000D01*
X173800000Y-115150000D02*
X173350000Y-115600000D01*
X173800000Y-118550000D02*
X173350000Y-118100000D01*
X175100000Y-114100000D02*
X177100000Y-114100000D01*
X175100000Y-119600000D02*
X177100000Y-119600000D01*
X178400000Y-115150000D02*
X178850000Y-115600000D01*
X178400000Y-118550000D02*
X178850000Y-118100000D01*
X178850000Y-118100000D02*
X178850000Y-115600000D01*
%TO.C,SW12*%
X186350000Y-92100000D02*
X186350000Y-89600000D01*
X186800000Y-89150000D02*
X186350000Y-89600000D01*
X186800000Y-92550000D02*
X186350000Y-92100000D01*
X188100000Y-88100000D02*
X190100000Y-88100000D01*
X188100000Y-93600000D02*
X190100000Y-93600000D01*
X191400000Y-89150000D02*
X191850000Y-89600000D01*
X191400000Y-92550000D02*
X191850000Y-92100000D01*
X191850000Y-92100000D02*
X191850000Y-89600000D01*
%TO.C,SW18*%
X160350000Y-118100000D02*
X160350000Y-115600000D01*
X160800000Y-115150000D02*
X160350000Y-115600000D01*
X160800000Y-118550000D02*
X160350000Y-118100000D01*
X162100000Y-114100000D02*
X164100000Y-114100000D01*
X162100000Y-119600000D02*
X164100000Y-119600000D01*
X165400000Y-115150000D02*
X165850000Y-115600000D01*
X165400000Y-118550000D02*
X165850000Y-118100000D01*
X165850000Y-118100000D02*
X165850000Y-115600000D01*
%TO.C,SW13*%
X147350000Y-105100000D02*
X147350000Y-102600000D01*
X147800000Y-102150000D02*
X147350000Y-102600000D01*
X147800000Y-105550000D02*
X147350000Y-105100000D01*
X149100000Y-101100000D02*
X151100000Y-101100000D01*
X149100000Y-106600000D02*
X151100000Y-106600000D01*
X152400000Y-102150000D02*
X152850000Y-102600000D01*
X152400000Y-105550000D02*
X152850000Y-105100000D01*
X152850000Y-105100000D02*
X152850000Y-102600000D01*
%TO.C,SW15*%
X173350000Y-105100000D02*
X173350000Y-102600000D01*
X173800000Y-102150000D02*
X173350000Y-102600000D01*
X173800000Y-105550000D02*
X173350000Y-105100000D01*
X175100000Y-101100000D02*
X177100000Y-101100000D01*
X175100000Y-106600000D02*
X177100000Y-106600000D01*
X178400000Y-102150000D02*
X178850000Y-102600000D01*
X178400000Y-105550000D02*
X178850000Y-105100000D01*
X178850000Y-105100000D02*
X178850000Y-102600000D01*
%TO.C,SW10*%
X160350000Y-92100000D02*
X160350000Y-89600000D01*
X160800000Y-89150000D02*
X160350000Y-89600000D01*
X160800000Y-92550000D02*
X160350000Y-92100000D01*
X162100000Y-88100000D02*
X164100000Y-88100000D01*
X162100000Y-93600000D02*
X164100000Y-93600000D01*
X165400000Y-89150000D02*
X165850000Y-89600000D01*
X165400000Y-92550000D02*
X165850000Y-92100000D01*
X165850000Y-92100000D02*
X165850000Y-89600000D01*
%TO.C,SW20*%
X186350000Y-118100000D02*
X186350000Y-115600000D01*
X186800000Y-115150000D02*
X186350000Y-115600000D01*
X186800000Y-118550000D02*
X186350000Y-118100000D01*
X188100000Y-114100000D02*
X190100000Y-114100000D01*
X188100000Y-119600000D02*
X190100000Y-119600000D01*
X191400000Y-115150000D02*
X191850000Y-115600000D01*
X191400000Y-118550000D02*
X191850000Y-118100000D01*
X191850000Y-118100000D02*
X191850000Y-115600000D01*
%TO.C,SW14*%
X160350000Y-105100000D02*
X160350000Y-102600000D01*
X160800000Y-102150000D02*
X160350000Y-102600000D01*
X160800000Y-105550000D02*
X160350000Y-105100000D01*
X162100000Y-101100000D02*
X164100000Y-101100000D01*
X162100000Y-106600000D02*
X164100000Y-106600000D01*
X165400000Y-102150000D02*
X165850000Y-102600000D01*
X165400000Y-105550000D02*
X165850000Y-105100000D01*
X165850000Y-105100000D02*
X165850000Y-102600000D01*
%TO.C,SW11*%
X173350000Y-92100000D02*
X173350000Y-89600000D01*
X173800000Y-89150000D02*
X173350000Y-89600000D01*
X173800000Y-92550000D02*
X173350000Y-92100000D01*
X175100000Y-88100000D02*
X177100000Y-88100000D01*
X175100000Y-93600000D02*
X177100000Y-93600000D01*
X178400000Y-89150000D02*
X178850000Y-89600000D01*
X178400000Y-92550000D02*
X178850000Y-92100000D01*
X178850000Y-92100000D02*
X178850000Y-89600000D01*
%TO.C,SW1*%
X147350000Y-66100000D02*
X147350000Y-63600000D01*
X147800000Y-63150000D02*
X147350000Y-63600000D01*
X147800000Y-66550000D02*
X147350000Y-66100000D01*
X149100000Y-62100000D02*
X151100000Y-62100000D01*
X149100000Y-67600000D02*
X151100000Y-67600000D01*
X152400000Y-63150000D02*
X152850000Y-63600000D01*
X152400000Y-66550000D02*
X152850000Y-66100000D01*
X152850000Y-66100000D02*
X152850000Y-63600000D01*
%TO.C,SW3*%
X173350000Y-66100000D02*
X173350000Y-63600000D01*
X173800000Y-63150000D02*
X173350000Y-63600000D01*
X173800000Y-66550000D02*
X173350000Y-66100000D01*
X175100000Y-62100000D02*
X177100000Y-62100000D01*
X175100000Y-67600000D02*
X177100000Y-67600000D01*
X178400000Y-63150000D02*
X178850000Y-63600000D01*
X178400000Y-66550000D02*
X178850000Y-66100000D01*
X178850000Y-66100000D02*
X178850000Y-63600000D01*
%TO.C,SW16*%
X186350000Y-105100000D02*
X186350000Y-102600000D01*
X186800000Y-102150000D02*
X186350000Y-102600000D01*
X186800000Y-105550000D02*
X186350000Y-105100000D01*
X188100000Y-101100000D02*
X190100000Y-101100000D01*
X188100000Y-106600000D02*
X190100000Y-106600000D01*
X191400000Y-102150000D02*
X191850000Y-102600000D01*
X191400000Y-105550000D02*
X191850000Y-105100000D01*
X191850000Y-105100000D02*
X191850000Y-102600000D01*
%TO.C,SW8*%
X186350000Y-79100000D02*
X186350000Y-76600000D01*
X186800000Y-76150000D02*
X186350000Y-76600000D01*
X186800000Y-79550000D02*
X186350000Y-79100000D01*
X188100000Y-75100000D02*
X190100000Y-75100000D01*
X188100000Y-80600000D02*
X190100000Y-80600000D01*
X191400000Y-76150000D02*
X191850000Y-76600000D01*
X191400000Y-79550000D02*
X191850000Y-79100000D01*
X191850000Y-79100000D02*
X191850000Y-76600000D01*
%TO.C,SW5*%
X147350000Y-79100000D02*
X147350000Y-76600000D01*
X147800000Y-76150000D02*
X147350000Y-76600000D01*
X147800000Y-79550000D02*
X147350000Y-79100000D01*
X149100000Y-75100000D02*
X151100000Y-75100000D01*
X149100000Y-80600000D02*
X151100000Y-80600000D01*
X152400000Y-76150000D02*
X152850000Y-76600000D01*
X152400000Y-79550000D02*
X152850000Y-79100000D01*
X152850000Y-79100000D02*
X152850000Y-76600000D01*
%TO.C,SW17*%
X147350000Y-118100000D02*
X147350000Y-115600000D01*
X147800000Y-115150000D02*
X147350000Y-115600000D01*
X147800000Y-118550000D02*
X147350000Y-118100000D01*
X149100000Y-114100000D02*
X151100000Y-114100000D01*
X149100000Y-119600000D02*
X151100000Y-119600000D01*
X152400000Y-115150000D02*
X152850000Y-115600000D01*
X152400000Y-118550000D02*
X152850000Y-118100000D01*
X152850000Y-118100000D02*
X152850000Y-115600000D01*
%TO.C,SW2*%
X160350000Y-66100000D02*
X160350000Y-63600000D01*
X160800000Y-63150000D02*
X160350000Y-63600000D01*
X160800000Y-66550000D02*
X160350000Y-66100000D01*
X162100000Y-62100000D02*
X164100000Y-62100000D01*
X162100000Y-67600000D02*
X164100000Y-67600000D01*
X165400000Y-63150000D02*
X165850000Y-63600000D01*
X165400000Y-66550000D02*
X165850000Y-66100000D01*
X165850000Y-66100000D02*
X165850000Y-63600000D01*
%TO.C,SW6*%
X160350000Y-79100000D02*
X160350000Y-76600000D01*
X160800000Y-76150000D02*
X160350000Y-76600000D01*
X160800000Y-79550000D02*
X160350000Y-79100000D01*
X162100000Y-75100000D02*
X164100000Y-75100000D01*
X162100000Y-80600000D02*
X164100000Y-80600000D01*
X165400000Y-76150000D02*
X165850000Y-76600000D01*
X165400000Y-79550000D02*
X165850000Y-79100000D01*
X165850000Y-79100000D02*
X165850000Y-76600000D01*
%TO.C,SW4*%
X186350000Y-66100000D02*
X186350000Y-63600000D01*
X186800000Y-63150000D02*
X186350000Y-63600000D01*
X186800000Y-66550000D02*
X186350000Y-66100000D01*
X188100000Y-62100000D02*
X190100000Y-62100000D01*
X188100000Y-67600000D02*
X190100000Y-67600000D01*
X191400000Y-63150000D02*
X191850000Y-63600000D01*
X191400000Y-66550000D02*
X191850000Y-66100000D01*
X191850000Y-66100000D02*
X191850000Y-63600000D01*
%TO.C,SW7*%
X173350000Y-79100000D02*
X173350000Y-76600000D01*
X173800000Y-76150000D02*
X173350000Y-76600000D01*
X173800000Y-79550000D02*
X173350000Y-79100000D01*
X175100000Y-75100000D02*
X177100000Y-75100000D01*
X175100000Y-80600000D02*
X177100000Y-80600000D01*
X178400000Y-76150000D02*
X178850000Y-76600000D01*
X178400000Y-79550000D02*
X178850000Y-79100000D01*
X178850000Y-79100000D02*
X178850000Y-76600000D01*
%TO.C,SW9*%
X147350000Y-92100000D02*
X147350000Y-89600000D01*
X147800000Y-89150000D02*
X147350000Y-89600000D01*
X147800000Y-92550000D02*
X147350000Y-92100000D01*
X149100000Y-88100000D02*
X151100000Y-88100000D01*
X149100000Y-93600000D02*
X151100000Y-93600000D01*
X152400000Y-89150000D02*
X152850000Y-89600000D01*
X152400000Y-92550000D02*
X152850000Y-92100000D01*
X152850000Y-92100000D02*
X152850000Y-89600000D01*
%TD*%
M02*
