%TF.GenerationSoftware,KiCad,Pcbnew,9.0.7*%
%TF.CreationDate,2026-01-23T16:09:28+09:00*%
%TF.ProjectId,meishi_tenkey,6d656973-6869-45f7-9465-6e6b65792e6b,rev?*%
%TF.SameCoordinates,Original*%
%TF.FileFunction,Copper,L1,Top*%
%TF.FilePolarity,Positive*%
%FSLAX46Y46*%
G04 Gerber Fmt 4.6, Leading zero omitted, Abs format (unit mm)*
G04 Created by KiCad (PCBNEW 9.0.7) date 2026-01-23 16:09:28*
%MOMM*%
%LPD*%
G01*
G04 APERTURE LIST*
%TA.AperFunction,ComponentPad*%
%ADD10R,1.700000X1.700000*%
%TD*%
%TA.AperFunction,ComponentPad*%
%ADD11C,1.700000*%
%TD*%
%TA.AperFunction,SMDPad,CuDef*%
%ADD12R,1.000000X1.700000*%
%TD*%
%TA.AperFunction,ViaPad*%
%ADD13C,0.600000*%
%TD*%
%TA.AperFunction,Conductor*%
%ADD14C,0.200000*%
%TD*%
G04 APERTURE END LIST*
D10*
%TO.P,J2,1,Pin_1*%
%TO.N,unconnected-(J2-Pin_1-Pad1)*%
X163500000Y-40840000D03*
D11*
%TO.P,J2,2,Pin_2*%
%TO.N,unconnected-(J2-Pin_2-Pad2)*%
X163500000Y-43380000D03*
%TO.P,J2,3,Pin_3*%
%TO.N,unconnected-(J2-Pin_3-Pad3)*%
X163500000Y-45920000D03*
%TO.P,J2,4,Pin_4*%
%TO.N,Col0*%
X163500000Y-48460000D03*
%TO.P,J2,5,Pin_5*%
%TO.N,Col1*%
X163500000Y-51000000D03*
%TO.P,J2,6,Pin_6*%
%TO.N,Col2*%
X163500000Y-53540000D03*
%TO.P,J2,7,Pin_7*%
%TO.N,Col3*%
X163500000Y-56080000D03*
%TD*%
%TO.P,J4,7,Pin_7*%
%TO.N,Net-(J4-Pin_7)*%
X217000000Y-59000000D03*
%TO.P,J4,6,Pin_6*%
%TO.N,Net-(J4-Pin_6)*%
X217000000Y-56460000D03*
%TO.P,J4,5,Pin_5*%
%TO.N,Net-(J4-Pin_5)*%
X217000000Y-53920000D03*
%TO.P,J4,4,Pin_4*%
%TO.N,Net-(J4-Pin_4)*%
X217000000Y-51380000D03*
%TO.P,J4,3,Pin_3*%
%TO.N,Net-(J4-Pin_3)*%
X217000000Y-48840000D03*
%TO.P,J4,2,Pin_2*%
%TO.N,Net-(J4-Pin_2)*%
X217000000Y-46300000D03*
D10*
%TO.P,J4,1,Pin_1*%
%TO.N,Net-(J4-Pin_1)*%
X217000000Y-43760000D03*
%TD*%
D12*
%TO.P,SW17,1,1*%
%TO.N,Col0*%
X148200000Y-120000000D03*
X148200000Y-113700000D03*
%TO.P,SW17,2,2*%
%TO.N,Net-(D17-A)*%
X152000000Y-120000000D03*
X152000000Y-113700000D03*
%TD*%
%TO.P,SW15,1,1*%
%TO.N,Col2*%
X174200000Y-107000000D03*
X174200000Y-100700000D03*
%TO.P,SW15,2,2*%
%TO.N,Net-(D15-A)*%
X178000000Y-107000000D03*
X178000000Y-100700000D03*
%TD*%
%TO.P,SW13,1,1*%
%TO.N,Col0*%
X148200000Y-107000000D03*
X148200000Y-100700000D03*
%TO.P,SW13,2,2*%
%TO.N,Net-(D13-A)*%
X152000000Y-107000000D03*
X152000000Y-100700000D03*
%TD*%
%TO.P,SW14,1,1*%
%TO.N,Col1*%
X161200000Y-107000000D03*
X161200000Y-100700000D03*
%TO.P,SW14,2,2*%
%TO.N,Net-(D14-A)*%
X165000000Y-107000000D03*
X165000000Y-100700000D03*
%TD*%
%TO.P,SW16,1,1*%
%TO.N,Col3*%
X187200000Y-107000000D03*
X187200000Y-100700000D03*
%TO.P,SW16,2,2*%
%TO.N,Net-(D16-A)*%
X191000000Y-107000000D03*
X191000000Y-100700000D03*
%TD*%
%TO.P,SW12,1,1*%
%TO.N,Col3*%
X187200000Y-94000000D03*
X187200000Y-87700000D03*
%TO.P,SW12,2,2*%
%TO.N,Net-(D12-A)*%
X191000000Y-94000000D03*
X191000000Y-87700000D03*
%TD*%
%TO.P,SW9,1,1*%
%TO.N,Col0*%
X148200000Y-94000000D03*
X148200000Y-87700000D03*
%TO.P,SW9,2,2*%
%TO.N,Net-(D9-A)*%
X152000000Y-94000000D03*
X152000000Y-87700000D03*
%TD*%
%TO.P,SW10,1,1*%
%TO.N,Col1*%
X161200000Y-94000000D03*
X161200000Y-87700000D03*
%TO.P,SW10,2,2*%
%TO.N,Net-(D10-A)*%
X165000000Y-94000000D03*
X165000000Y-87700000D03*
%TD*%
%TO.P,SW11,1,1*%
%TO.N,Col2*%
X174200000Y-94000000D03*
X174200000Y-87700000D03*
%TO.P,SW11,2,2*%
%TO.N,Net-(D11-A)*%
X178000000Y-94000000D03*
X178000000Y-87700000D03*
%TD*%
%TO.P,SW18,1,1*%
%TO.N,Col1*%
X161200000Y-120000000D03*
X161200000Y-113700000D03*
%TO.P,SW18,2,2*%
%TO.N,Net-(D18-A)*%
X165000000Y-120000000D03*
X165000000Y-113700000D03*
%TD*%
%TO.P,SW19,1,1*%
%TO.N,Col2*%
X174200000Y-120000000D03*
X174200000Y-113700000D03*
%TO.P,SW19,2,2*%
%TO.N,Net-(D19-A)*%
X178000000Y-120000000D03*
X178000000Y-113700000D03*
%TD*%
%TO.P,SW20,1,1*%
%TO.N,Col3*%
X187200000Y-120000000D03*
X187200000Y-113700000D03*
%TO.P,SW20,2,2*%
%TO.N,Net-(D20-A)*%
X191000000Y-120000000D03*
X191000000Y-113700000D03*
%TD*%
%TO.P,SW8,1,1*%
%TO.N,Col3*%
X187200000Y-81000000D03*
X187200000Y-74700000D03*
%TO.P,SW8,2,2*%
%TO.N,Net-(D8-A)*%
X191000000Y-81000000D03*
X191000000Y-74700000D03*
%TD*%
%TO.P,SW5,2,2*%
%TO.N,Net-(D5-A)*%
X152000000Y-74700000D03*
X152000000Y-81000000D03*
%TO.P,SW5,1,1*%
%TO.N,Col0*%
X148200000Y-74700000D03*
X148200000Y-81000000D03*
%TD*%
%TO.P,SW2,2,2*%
%TO.N,Net-(D2-A)*%
X165000000Y-61700000D03*
X165000000Y-68000000D03*
%TO.P,SW2,1,1*%
%TO.N,Col1*%
X161200000Y-61700000D03*
X161200000Y-68000000D03*
%TD*%
%TO.P,SW4,2,2*%
%TO.N,Net-(D4-A)*%
X191000000Y-61700000D03*
X191000000Y-68000000D03*
%TO.P,SW4,1,1*%
%TO.N,Col3*%
X187200000Y-61700000D03*
X187200000Y-68000000D03*
%TD*%
%TO.P,SW3,2,2*%
%TO.N,Net-(D3-A)*%
X178000000Y-61700000D03*
X178000000Y-68000000D03*
%TO.P,SW3,1,1*%
%TO.N,Col2*%
X174200000Y-61700000D03*
X174200000Y-68000000D03*
%TD*%
%TO.P,SW7,1,1*%
%TO.N,Col2*%
X174200000Y-81000000D03*
X174200000Y-74700000D03*
%TO.P,SW7,2,2*%
%TO.N,Net-(D7-A)*%
X178000000Y-81000000D03*
X178000000Y-74700000D03*
%TD*%
%TO.P,SW1,1,1*%
%TO.N,Col0*%
X148200000Y-68000000D03*
X148200000Y-61700000D03*
%TO.P,SW1,2,2*%
%TO.N,Net-(D1-A)*%
X152000000Y-68000000D03*
X152000000Y-61700000D03*
%TD*%
%TO.P,SW6,1,1*%
%TO.N,Col1*%
X161200000Y-81000000D03*
X161200000Y-74700000D03*
%TO.P,SW6,2,2*%
%TO.N,Net-(D6-A)*%
X165000000Y-81000000D03*
X165000000Y-74700000D03*
%TD*%
D11*
%TO.P,J3,7,Pin_7*%
%TO.N,Net-(J3-Pin_7)*%
X249000000Y-59000000D03*
%TO.P,J3,6,Pin_6*%
%TO.N,Net-(J3-Pin_6)*%
X249000000Y-56460000D03*
%TO.P,J3,5,Pin_5*%
%TO.N,Net-(J3-Pin_5)*%
X249000000Y-53920000D03*
%TO.P,J3,4,Pin_4*%
%TO.N,Net-(J3-Pin_4)*%
X249000000Y-51380000D03*
%TO.P,J3,3,Pin_3*%
%TO.N,Net-(J3-Pin_3)*%
X249000000Y-48840000D03*
%TO.P,J3,2,Pin_2*%
%TO.N,Net-(J3-Pin_2)*%
X249000000Y-46300000D03*
D10*
%TO.P,J3,1,Pin_1*%
%TO.N,Net-(J3-Pin_1)*%
X249000000Y-43760000D03*
%TD*%
D11*
%TO.P,J1,7,Pin_7*%
%TO.N,unconnected-(J1-Pin_7-Pad7)*%
X179000000Y-56080000D03*
%TO.P,J1,6,Pin_6*%
%TO.N,unconnected-(J1-Pin_6-Pad6)*%
X179000000Y-53540000D03*
%TO.P,J1,5,Pin_5*%
%TO.N,Row4*%
X179000000Y-51000000D03*
%TO.P,J1,4,Pin_4*%
%TO.N,Row3*%
X179000000Y-48460000D03*
%TO.P,J1,3,Pin_3*%
%TO.N,Row2*%
X179000000Y-45920000D03*
%TO.P,J1,2,Pin_2*%
%TO.N,Row1*%
X179000000Y-43380000D03*
D10*
%TO.P,J1,1,Pin_1*%
%TO.N,Row0*%
X179000000Y-40840000D03*
%TD*%
D13*
%TO.N,Net-(D20-A)*%
X193000000Y-120000000D03*
%TO.N,Net-(D19-A)*%
X180000000Y-120000000D03*
%TO.N,Net-(D18-A)*%
X167000000Y-120000000D03*
%TO.N,Net-(D17-A)*%
X154000000Y-120000000D03*
%TO.N,Net-(D15-A)*%
X180000000Y-107000000D03*
%TO.N,Net-(D14-A)*%
X167000000Y-107000000D03*
%TO.N,Net-(D13-A)*%
X154000000Y-107000000D03*
%TO.N,Net-(D12-A)*%
X193000000Y-94000000D03*
%TO.N,Net-(D11-A)*%
X180000000Y-94000000D03*
%TO.N,Net-(D10-A)*%
X167000000Y-94000000D03*
%TO.N,Net-(D9-A)*%
X154000000Y-94000000D03*
%TO.N,Net-(D8-A)*%
X193000000Y-81000000D03*
%TO.N,Net-(D7-A)*%
X180000000Y-81000000D03*
%TO.N,Net-(D6-A)*%
X167000000Y-81000000D03*
%TO.N,Net-(D5-A)*%
X154000000Y-81000000D03*
%TO.N,Net-(D4-A)*%
X193000000Y-68000000D03*
%TO.N,Net-(D3-A)*%
X180000000Y-68000000D03*
%TO.N,Net-(D2-A)*%
X167000000Y-68000000D03*
%TO.N,Net-(D1-A)*%
X154000000Y-68000000D03*
%TO.N,Col3*%
X157000000Y-57000000D03*
%TO.N,Col1*%
X157000000Y-52000000D03*
%TO.N,Col0*%
X157000000Y-49000000D03*
%TO.N,Net-(D16-A)*%
X193000000Y-107000000D03*
%TO.N,Col2*%
X157000000Y-54000000D03*
%TD*%
D14*
%TO.N,Net-(D17-A)*%
X152000000Y-113700000D02*
X152000000Y-120000000D01*
%TO.N,Net-(D18-A)*%
X165000000Y-113700000D02*
X165000000Y-120000000D01*
%TO.N,Net-(D19-A)*%
X178000000Y-113700000D02*
X178000000Y-120000000D01*
%TO.N,Net-(D20-A)*%
X191000000Y-113700000D02*
X191000000Y-120000000D01*
%TO.N,Net-(D16-A)*%
X191000000Y-100700000D02*
X191000000Y-107000000D01*
%TO.N,Net-(D15-A)*%
X178000000Y-100700000D02*
X178000000Y-107000000D01*
%TO.N,Net-(D14-A)*%
X165000000Y-100700000D02*
X165000000Y-107000000D01*
%TO.N,Net-(D13-A)*%
X152000000Y-100700000D02*
X152000000Y-107000000D01*
%TO.N,Net-(D9-A)*%
X152000000Y-87700000D02*
X152000000Y-94000000D01*
%TO.N,Net-(D10-A)*%
X165000000Y-94000000D02*
X165000000Y-87700000D01*
%TO.N,Net-(D11-A)*%
X178000000Y-87700000D02*
X178000000Y-94000000D01*
%TO.N,Net-(D12-A)*%
X191000000Y-94000000D02*
X191000000Y-87700000D01*
%TO.N,Net-(D8-A)*%
X191000000Y-81000000D02*
X191000000Y-74700000D01*
%TO.N,Net-(D7-A)*%
X178000000Y-81000000D02*
X178000000Y-74700000D01*
%TO.N,Net-(D6-A)*%
X165000000Y-74700000D02*
X165000000Y-81000000D01*
%TO.N,Net-(D5-A)*%
X152000000Y-74700000D02*
X152000000Y-81000000D01*
%TO.N,Net-(D4-A)*%
X191000000Y-61700000D02*
X191000000Y-68000000D01*
%TO.N,Net-(D3-A)*%
X178000000Y-61700000D02*
X178000000Y-68000000D01*
%TO.N,Net-(D2-A)*%
X165000000Y-61700000D02*
X165000000Y-68000000D01*
%TO.N,Net-(D1-A)*%
X152000000Y-61700000D02*
X152000000Y-68000000D01*
%TO.N,Col3*%
X184500000Y-59000000D02*
X160000000Y-59000000D01*
%TO.N,Net-(D20-A)*%
X191000000Y-120000000D02*
X193000000Y-120000000D01*
%TO.N,Net-(D19-A)*%
X180000000Y-120000000D02*
X178000000Y-120000000D01*
%TO.N,Net-(D18-A)*%
X167000000Y-120000000D02*
X165000000Y-120000000D01*
%TO.N,Net-(D17-A)*%
X154000000Y-120000000D02*
X152000000Y-120000000D01*
%TO.N,Net-(D15-A)*%
X180000000Y-107000000D02*
X178000000Y-107000000D01*
%TO.N,Net-(D14-A)*%
X167000000Y-107000000D02*
X165000000Y-107000000D01*
%TO.N,Net-(D13-A)*%
X154000000Y-107000000D02*
X152000000Y-107000000D01*
%TO.N,Net-(D12-A)*%
X193000000Y-94000000D02*
X191000000Y-94000000D01*
%TO.N,Net-(D11-A)*%
X180000000Y-94000000D02*
X178000000Y-94000000D01*
%TO.N,Net-(D10-A)*%
X167000000Y-94000000D02*
X165000000Y-94000000D01*
%TO.N,Net-(D9-A)*%
X154000000Y-94000000D02*
X152000000Y-94000000D01*
%TO.N,Net-(D8-A)*%
X193000000Y-81000000D02*
X191000000Y-81000000D01*
%TO.N,Net-(D7-A)*%
X180000000Y-81000000D02*
X178000000Y-81000000D01*
%TO.N,Net-(D6-A)*%
X167000000Y-81000000D02*
X165000000Y-81000000D01*
%TO.N,Net-(D5-A)*%
X154000000Y-81000000D02*
X152000000Y-81000000D01*
%TO.N,Net-(D4-A)*%
X193000000Y-68000000D02*
X191000000Y-68000000D01*
%TO.N,Net-(D3-A)*%
X180000000Y-68000000D02*
X178000000Y-68000000D01*
%TO.N,Net-(D2-A)*%
X167000000Y-68000000D02*
X165000000Y-68000000D01*
%TO.N,Net-(D1-A)*%
X154000000Y-68000000D02*
X152000000Y-68000000D01*
%TO.N,Col3*%
X157000000Y-58000000D02*
X158000000Y-59000000D01*
X157000000Y-57000000D02*
X157000000Y-58000000D01*
X160000000Y-59000000D02*
X158000000Y-59000000D01*
%TO.N,Col1*%
X155000000Y-54000000D02*
X157000000Y-52000000D01*
X155000000Y-59000000D02*
X155000000Y-54000000D01*
X157700000Y-61700000D02*
X155000000Y-59000000D01*
X161200000Y-61700000D02*
X157700000Y-61700000D01*
%TO.N,Col2*%
X174200000Y-61700000D02*
X172500000Y-60000000D01*
%TO.N,Col3*%
X187200000Y-61700000D02*
X187200000Y-120300000D01*
%TO.N,Col2*%
X174200000Y-61700000D02*
X174200000Y-120300000D01*
%TO.N,Col1*%
X161200000Y-61700000D02*
X161200000Y-120300000D01*
%TO.N,Col0*%
X148200000Y-61700000D02*
X148200000Y-120300000D01*
%TO.N,Col3*%
X187200000Y-61700000D02*
X184500000Y-59000000D01*
%TO.N,Col0*%
X150000000Y-49000000D02*
X157000000Y-49000000D01*
X148200000Y-50800000D02*
X150000000Y-49000000D01*
X148200000Y-61700000D02*
X148200000Y-50800000D01*
%TO.N,Net-(D16-A)*%
X193000000Y-107000000D02*
X191000000Y-107000000D01*
%TO.N,Col2*%
X155599000Y-55401000D02*
X157000000Y-54000000D01*
X155599000Y-58599000D02*
X155599000Y-55401000D01*
X172500000Y-60000000D02*
X157000000Y-60000000D01*
X157000000Y-60000000D02*
X155599000Y-58599000D01*
%TD*%
M02*
