M48
; DRILL file {KiCad 9.0.7} date 2026-02-27T13:31:40+0900
; FORMAT={-:-/ absolute / metric / decimal}
; #@! TF.CreationDate,2026-02-27T13:31:40+09:00
; #@! TF.GenerationSoftware,Kicad,Pcbnew,9.0.7
; #@! TF.FileFunction,Plated,1,2,PTH
FMAT,2
METRIC
; #@! TA.AperFunction,Plated,PTH,ViaDrill
T1C0.300
; #@! TA.AperFunction,Plated,PTH,ComponentDrill
T2C0.889
%
G90
G05
T1
X154.0Y-68.0
X154.0Y-81.0
X154.0Y-94.0
X154.0Y-107.0
X154.0Y-120.0
X157.0Y-49.0
X157.0Y-52.0
X157.0Y-54.0
X157.0Y-57.0
X167.0Y-68.0
X167.0Y-81.0
X167.0Y-94.0
X167.0Y-107.0
X167.0Y-120.0
X180.0Y-68.0
X180.0Y-81.0
X180.0Y-94.0
X180.0Y-107.0
X180.0Y-120.0
X193.0Y-68.0
X193.0Y-81.0
X193.0Y-94.0
X193.0Y-107.0
X193.0Y-120.0
T2
X163.76Y-40.84
X163.76Y-43.38
X163.76Y-45.92
X163.76Y-48.46
X163.76Y-51.0
X163.76Y-53.54
X163.76Y-56.08
X179.0Y-40.84
X179.0Y-43.38
X179.0Y-45.92
X179.0Y-48.46
X179.0Y-51.0
X179.0Y-53.54
X179.0Y-56.08
M30
