%TF.GenerationSoftware,KiCad,Pcbnew,9.0.7*%
%TF.CreationDate,2026-01-23T16:09:28+09:00*%
%TF.ProjectId,meishi_tenkey,6d656973-6869-45f7-9465-6e6b65792e6b,rev?*%
%TF.SameCoordinates,Original*%
%TF.FileFunction,Copper,L2,Bot*%
%TF.FilePolarity,Positive*%
%FSLAX46Y46*%
G04 Gerber Fmt 4.6, Leading zero omitted, Abs format (unit mm)*
G04 Created by KiCad (PCBNEW 9.0.7) date 2026-01-23 16:09:28*
%MOMM*%
%LPD*%
G01*
G04 APERTURE LIST*
G04 Aperture macros list*
%AMRoundRect*
0 Rectangle with rounded corners*
0 $1 Rounding radius*
0 $2 $3 $4 $5 $6 $7 $8 $9 X,Y pos of 4 corners*
0 Add a 4 corners polygon primitive as box body*
4,1,4,$2,$3,$4,$5,$6,$7,$8,$9,$2,$3,0*
0 Add four circle primitives for the rounded corners*
1,1,$1+$1,$2,$3*
1,1,$1+$1,$4,$5*
1,1,$1+$1,$6,$7*
1,1,$1+$1,$8,$9*
0 Add four rect primitives between the rounded corners*
20,1,$1+$1,$2,$3,$4,$5,0*
20,1,$1+$1,$4,$5,$6,$7,0*
20,1,$1+$1,$6,$7,$8,$9,0*
20,1,$1+$1,$8,$9,$2,$3,0*%
G04 Aperture macros list end*
%TA.AperFunction,ComponentPad*%
%ADD10R,1.700000X1.700000*%
%TD*%
%TA.AperFunction,ComponentPad*%
%ADD11C,1.700000*%
%TD*%
%TA.AperFunction,SMDPad,CuDef*%
%ADD12RoundRect,0.225000X0.375000X-0.225000X0.375000X0.225000X-0.375000X0.225000X-0.375000X-0.225000X0*%
%TD*%
%TA.AperFunction,SMDPad,CuDef*%
%ADD13C,1.700000*%
%TD*%
%TA.AperFunction,SMDPad,CuDef*%
%ADD14RoundRect,0.275000X-0.275000X0.975000X-0.275000X-0.975000X0.275000X-0.975000X0.275000X0.975000X0*%
%TD*%
%TA.AperFunction,SMDPad,CuDef*%
%ADD15RoundRect,0.500000X0.875000X0.500000X-0.875000X0.500000X-0.875000X-0.500000X0.875000X-0.500000X0*%
%TD*%
%TA.AperFunction,ViaPad*%
%ADD16C,0.600000*%
%TD*%
%TA.AperFunction,Conductor*%
%ADD17C,0.200000*%
%TD*%
G04 APERTURE END LIST*
D10*
%TO.P,J2,1,Pin_1*%
%TO.N,unconnected-(J2-Pin_1-Pad1)*%
X163500000Y-40840000D03*
D11*
%TO.P,J2,2,Pin_2*%
%TO.N,unconnected-(J2-Pin_2-Pad2)*%
X163500000Y-43380000D03*
%TO.P,J2,3,Pin_3*%
%TO.N,unconnected-(J2-Pin_3-Pad3)*%
X163500000Y-45920000D03*
%TO.P,J2,4,Pin_4*%
%TO.N,Col0*%
X163500000Y-48460000D03*
%TO.P,J2,5,Pin_5*%
%TO.N,Col1*%
X163500000Y-51000000D03*
%TO.P,J2,6,Pin_6*%
%TO.N,Col2*%
X163500000Y-53540000D03*
%TO.P,J2,7,Pin_7*%
%TO.N,Col3*%
X163500000Y-56080000D03*
%TD*%
%TO.P,J4,7,Pin_7*%
%TO.N,Net-(J4-Pin_7)*%
X217000000Y-59000000D03*
%TO.P,J4,6,Pin_6*%
%TO.N,Net-(J4-Pin_6)*%
X217000000Y-56460000D03*
%TO.P,J4,5,Pin_5*%
%TO.N,Net-(J4-Pin_5)*%
X217000000Y-53920000D03*
%TO.P,J4,4,Pin_4*%
%TO.N,Net-(J4-Pin_4)*%
X217000000Y-51380000D03*
%TO.P,J4,3,Pin_3*%
%TO.N,Net-(J4-Pin_3)*%
X217000000Y-48840000D03*
%TO.P,J4,2,Pin_2*%
%TO.N,Net-(J4-Pin_2)*%
X217000000Y-46300000D03*
D10*
%TO.P,J4,1,Pin_1*%
%TO.N,Net-(J4-Pin_1)*%
X217000000Y-43760000D03*
%TD*%
D12*
%TO.P,D14,1,K*%
%TO.N,Row3*%
X168000000Y-112000000D03*
%TO.P,D14,2,A*%
%TO.N,Net-(D14-A)*%
X168000000Y-108700000D03*
%TD*%
%TO.P,D13,2,A*%
%TO.N,Net-(D13-A)*%
X155000000Y-108700000D03*
%TO.P,D13,1,K*%
%TO.N,Row3*%
X155000000Y-112000000D03*
%TD*%
%TO.P,D15,1,K*%
%TO.N,Row3*%
X181000000Y-112000000D03*
%TO.P,D15,2,A*%
%TO.N,Net-(D15-A)*%
X181000000Y-108700000D03*
%TD*%
%TO.P,D16,2,A*%
%TO.N,Net-(D16-A)*%
X194000000Y-108700000D03*
%TO.P,D16,1,K*%
%TO.N,Row3*%
X194000000Y-112000000D03*
%TD*%
%TO.P,D10,1,K*%
%TO.N,Row2*%
X168000000Y-99000000D03*
%TO.P,D10,2,A*%
%TO.N,Net-(D10-A)*%
X168000000Y-95700000D03*
%TD*%
%TO.P,D11,2,A*%
%TO.N,Net-(D11-A)*%
X181000000Y-95700000D03*
%TO.P,D11,1,K*%
%TO.N,Row2*%
X181000000Y-99000000D03*
%TD*%
%TO.P,D9,2,A*%
%TO.N,Net-(D9-A)*%
X155000000Y-95700000D03*
%TO.P,D9,1,K*%
%TO.N,Row2*%
X155000000Y-99000000D03*
%TD*%
%TO.P,D12,2,A*%
%TO.N,Net-(D12-A)*%
X194000000Y-95700000D03*
%TO.P,D12,1,K*%
%TO.N,Row2*%
X194000000Y-99000000D03*
%TD*%
%TO.P,D20,1,K*%
%TO.N,Row4*%
X194000000Y-125300000D03*
%TO.P,D20,2,A*%
%TO.N,Net-(D20-A)*%
X194000000Y-122000000D03*
%TD*%
%TO.P,D6,1,K*%
%TO.N,Row1*%
X168000000Y-86000000D03*
%TO.P,D6,2,A*%
%TO.N,Net-(D6-A)*%
X168000000Y-82700000D03*
%TD*%
%TO.P,D5,1,K*%
%TO.N,Row1*%
X155000000Y-86000000D03*
%TO.P,D5,2,A*%
%TO.N,Net-(D5-A)*%
X155000000Y-82700000D03*
%TD*%
%TO.P,D2,1,K*%
%TO.N,Row0*%
X168000000Y-73000000D03*
%TO.P,D2,2,A*%
%TO.N,Net-(D2-A)*%
X168000000Y-69700000D03*
%TD*%
%TO.P,D1,1,K*%
%TO.N,Row0*%
X155000000Y-73000000D03*
%TO.P,D1,2,A*%
%TO.N,Net-(D1-A)*%
X155000000Y-69700000D03*
%TD*%
%TO.P,D4,1,K*%
%TO.N,Row0*%
X194000000Y-73000000D03*
%TO.P,D4,2,A*%
%TO.N,Net-(D4-A)*%
X194000000Y-69700000D03*
%TD*%
%TO.P,D3,1,K*%
%TO.N,Row0*%
X181000000Y-73000000D03*
%TO.P,D3,2,A*%
%TO.N,Net-(D3-A)*%
X181000000Y-69700000D03*
%TD*%
%TO.P,D7,1,K*%
%TO.N,Row1*%
X181000000Y-86000000D03*
%TO.P,D7,2,A*%
%TO.N,Net-(D7-A)*%
X181000000Y-82700000D03*
%TD*%
%TO.P,D8,2,A*%
%TO.N,Net-(D8-A)*%
X194000000Y-82700000D03*
%TO.P,D8,1,K*%
%TO.N,Row1*%
X194000000Y-86000000D03*
%TD*%
%TO.P,D17,1,K*%
%TO.N,Row4*%
X155000000Y-125300000D03*
%TO.P,D17,2,A*%
%TO.N,Net-(D17-A)*%
X155000000Y-122000000D03*
%TD*%
%TO.P,D18,2,A*%
%TO.N,Net-(D18-A)*%
X168000000Y-122000000D03*
%TO.P,D18,1,K*%
%TO.N,Row4*%
X168000000Y-125300000D03*
%TD*%
%TO.P,D19,2,A*%
%TO.N,Net-(D19-A)*%
X181000000Y-122000000D03*
%TO.P,D19,1,K*%
%TO.N,Row4*%
X181000000Y-125300000D03*
%TD*%
D11*
%TO.P,J3,7,Pin_7*%
%TO.N,Net-(J3-Pin_7)*%
X249000000Y-59000000D03*
%TO.P,J3,6,Pin_6*%
%TO.N,Net-(J3-Pin_6)*%
X249000000Y-56460000D03*
%TO.P,J3,5,Pin_5*%
%TO.N,Net-(J3-Pin_5)*%
X249000000Y-53920000D03*
%TO.P,J3,4,Pin_4*%
%TO.N,Net-(J3-Pin_4)*%
X249000000Y-51380000D03*
%TO.P,J3,3,Pin_3*%
%TO.N,Net-(J3-Pin_3)*%
X249000000Y-48840000D03*
%TO.P,J3,2,Pin_2*%
%TO.N,Net-(J3-Pin_2)*%
X249000000Y-46300000D03*
D10*
%TO.P,J3,1,Pin_1*%
%TO.N,Net-(J3-Pin_1)*%
X249000000Y-43760000D03*
%TD*%
D13*
%TO.P,U1,20,GND*%
%TO.N,unconnected-(U1-GND-Pad20)*%
X231000000Y-45522000D03*
%TO.P,U1,19,RST*%
%TO.N,unconnected-(U1-RST-Pad19)*%
X233540000Y-45522000D03*
%TO.P,U1,18,SWDCLK*%
%TO.N,unconnected-(U1-SWDCLK-Pad18)*%
X231000000Y-42982000D03*
%TO.P,U1,17,SWDIO*%
%TO.N,unconnected-(U1-SWDIO-Pad17)*%
X233540000Y-42982000D03*
D14*
%TO.P,U1,16,GND*%
%TO.N,unconnected-(U1-GND-Pad16)*%
X231000000Y-60000000D03*
%TO.P,U1,15,BAT*%
%TO.N,unconnected-(U1-BAT-Pad15)*%
X233540000Y-60000000D03*
D15*
%TO.P,U1,14,5V*%
%TO.N,Net-(J4-Pin_1)*%
X224287000Y-43740000D03*
%TO.P,U1,13,GND*%
%TO.N,Net-(J4-Pin_2)*%
X224287000Y-46280000D03*
%TO.P,U1,12,3V3*%
%TO.N,Net-(J4-Pin_3)*%
X224287000Y-48820000D03*
%TO.P,U1,11,GPIO3_D10_MOSI*%
%TO.N,Net-(J4-Pin_4)*%
X224287000Y-51360000D03*
%TO.P,U1,10,GPIO4_D9_MISO*%
%TO.N,Net-(J4-Pin_5)*%
X224287000Y-53900000D03*
%TO.P,U1,9,GPIO2_D8_SCK*%
%TO.N,Net-(J4-Pin_6)*%
X224287000Y-56440000D03*
%TO.P,U1,8,GPIO1_D7_CSn_RX*%
%TO.N,Net-(J4-Pin_7)*%
X224287000Y-58980000D03*
%TO.P,U1,7,GPIO0_D6_TX*%
%TO.N,Net-(J3-Pin_7)*%
X240452000Y-58980000D03*
%TO.P,U1,6,GPIO7_D5_SCL*%
%TO.N,Net-(J3-Pin_6)*%
X240452000Y-56440000D03*
%TO.P,U1,5,GPIO6_D4_SDA*%
%TO.N,Net-(J3-Pin_5)*%
X240452000Y-53900000D03*
%TO.P,U1,4,GPIO29_A3_D3*%
%TO.N,Net-(J3-Pin_4)*%
X240452000Y-51360000D03*
%TO.P,U1,3,GPIO28_A2_D2*%
%TO.N,Net-(J3-Pin_3)*%
X240452000Y-48820000D03*
%TO.P,U1,2,GPIO27_A1_D1*%
%TO.N,Net-(J3-Pin_2)*%
X240452000Y-46280000D03*
%TO.P,U1,1,GPIO26_A0_D0*%
%TO.N,Net-(J3-Pin_1)*%
X240452000Y-43740000D03*
%TD*%
D11*
%TO.P,J1,7,Pin_7*%
%TO.N,unconnected-(J1-Pin_7-Pad7)*%
X179000000Y-56080000D03*
%TO.P,J1,6,Pin_6*%
%TO.N,unconnected-(J1-Pin_6-Pad6)*%
X179000000Y-53540000D03*
%TO.P,J1,5,Pin_5*%
%TO.N,Row4*%
X179000000Y-51000000D03*
%TO.P,J1,4,Pin_4*%
%TO.N,Row3*%
X179000000Y-48460000D03*
%TO.P,J1,3,Pin_3*%
%TO.N,Row2*%
X179000000Y-45920000D03*
%TO.P,J1,2,Pin_2*%
%TO.N,Row1*%
X179000000Y-43380000D03*
D10*
%TO.P,J1,1,Pin_1*%
%TO.N,Row0*%
X179000000Y-40840000D03*
%TD*%
D16*
%TO.N,Net-(D20-A)*%
X193000000Y-120000000D03*
%TO.N,Net-(D19-A)*%
X180000000Y-120000000D03*
%TO.N,Net-(D18-A)*%
X167000000Y-120000000D03*
%TO.N,Net-(D17-A)*%
X154000000Y-120000000D03*
%TO.N,Net-(D15-A)*%
X180000000Y-107000000D03*
%TO.N,Net-(D14-A)*%
X167000000Y-107000000D03*
%TO.N,Net-(D13-A)*%
X154000000Y-107000000D03*
%TO.N,Net-(D12-A)*%
X193000000Y-94000000D03*
%TO.N,Net-(D11-A)*%
X180000000Y-94000000D03*
%TO.N,Net-(D10-A)*%
X167000000Y-94000000D03*
%TO.N,Net-(D9-A)*%
X154000000Y-94000000D03*
%TO.N,Net-(D8-A)*%
X193000000Y-81000000D03*
%TO.N,Net-(D7-A)*%
X180000000Y-81000000D03*
%TO.N,Net-(D6-A)*%
X167000000Y-81000000D03*
%TO.N,Net-(D5-A)*%
X154000000Y-81000000D03*
%TO.N,Net-(D4-A)*%
X193000000Y-68000000D03*
%TO.N,Net-(D3-A)*%
X180000000Y-68000000D03*
%TO.N,Net-(D2-A)*%
X167000000Y-68000000D03*
%TO.N,Net-(D1-A)*%
X154000000Y-68000000D03*
%TO.N,Col3*%
X157000000Y-57000000D03*
%TO.N,Col1*%
X157000000Y-52000000D03*
%TO.N,Col0*%
X157000000Y-49000000D03*
%TO.N,Net-(D16-A)*%
X193000000Y-107000000D03*
%TO.N,Col2*%
X157000000Y-54000000D03*
%TD*%
D17*
%TO.N,Col3*%
X157920000Y-56080000D02*
X163500000Y-56080000D01*
%TO.N,Col2*%
X157460000Y-53540000D02*
X163500000Y-53540000D01*
%TO.N,Col1*%
X158000000Y-51000000D02*
X163500000Y-51000000D01*
%TO.N,Col0*%
X157540000Y-48460000D02*
X163500000Y-48460000D01*
%TO.N,Row4*%
X179000000Y-51000000D02*
X181000000Y-51000000D01*
%TO.N,Row3*%
X179000000Y-48460000D02*
X181460000Y-48460000D01*
%TO.N,Row2*%
X179000000Y-45920000D02*
X181920000Y-45920000D01*
%TO.N,Row1*%
X179000000Y-43380000D02*
X183380000Y-43380000D01*
%TO.N,Row0*%
X179000000Y-40840000D02*
X183840000Y-40840000D01*
X181000000Y-67000000D02*
X186000000Y-62000000D01*
X149000000Y-68000000D02*
X150000000Y-67000000D01*
X149000000Y-72000000D02*
X149000000Y-68000000D01*
X150000000Y-73000000D02*
X149000000Y-72000000D01*
X150000000Y-67000000D02*
X181000000Y-67000000D01*
X155000000Y-73000000D02*
X150000000Y-73000000D01*
X186000000Y-62000000D02*
X186000000Y-43000000D01*
X186000000Y-43000000D02*
X183840000Y-40840000D01*
%TO.N,Row1*%
X149000000Y-86000000D02*
X155000000Y-86000000D01*
X149000000Y-66000000D02*
X148000000Y-67000000D01*
X180000000Y-66000000D02*
X149000000Y-66000000D01*
X148000000Y-85000000D02*
X149000000Y-86000000D01*
X185000000Y-61000000D02*
X180000000Y-66000000D01*
X183380000Y-43380000D02*
X185000000Y-45000000D01*
X185000000Y-45000000D02*
X185000000Y-61000000D01*
X148000000Y-67000000D02*
X148000000Y-85000000D01*
%TO.N,Row2*%
X149000000Y-99000000D02*
X155000000Y-99000000D01*
X147000000Y-66000000D02*
X147000000Y-97000000D01*
X148000000Y-65000000D02*
X147000000Y-66000000D01*
X179000000Y-65000000D02*
X148000000Y-65000000D01*
X184000000Y-60000000D02*
X179000000Y-65000000D01*
X147000000Y-97000000D02*
X149000000Y-99000000D01*
X181920000Y-45920000D02*
X184000000Y-48000000D01*
X184000000Y-48000000D02*
X184000000Y-60000000D01*
%TO.N,Row3*%
X147000000Y-112000000D02*
X155000000Y-112000000D01*
X147000000Y-64000000D02*
X146000000Y-65000000D01*
X183000000Y-59000000D02*
X178000000Y-64000000D01*
X178000000Y-64000000D02*
X147000000Y-64000000D01*
X146000000Y-111000000D02*
X147000000Y-112000000D01*
X181460000Y-48460000D02*
X183000000Y-50000000D01*
X183000000Y-50000000D02*
X183000000Y-59000000D01*
X146000000Y-65000000D02*
X146000000Y-111000000D01*
%TO.N,Row4*%
X178000000Y-63000000D02*
X182000000Y-59000000D01*
X182000000Y-52000000D02*
X181000000Y-51000000D01*
X145000000Y-64000000D02*
X146000000Y-63000000D01*
X146000000Y-63000000D02*
X178000000Y-63000000D01*
X145000000Y-124000000D02*
X145000000Y-64000000D01*
X182000000Y-59000000D02*
X182000000Y-52000000D01*
X146300000Y-125300000D02*
X145000000Y-124000000D01*
X155000000Y-125300000D02*
X146300000Y-125300000D01*
%TO.N,Col3*%
X157000000Y-57000000D02*
X157920000Y-56080000D01*
%TO.N,Col2*%
X157000000Y-54000000D02*
X157460000Y-53540000D01*
%TO.N,Col1*%
X157000000Y-52000000D02*
X158000000Y-51000000D01*
%TO.N,Net-(D20-A)*%
X194000000Y-121000000D02*
X193000000Y-120000000D01*
X194000000Y-122000000D02*
X194000000Y-121000000D01*
%TO.N,Net-(D19-A)*%
X181000000Y-121000000D02*
X180000000Y-120000000D01*
X181000000Y-122000000D02*
X181000000Y-121000000D01*
%TO.N,Net-(D18-A)*%
X168000000Y-121000000D02*
X167000000Y-120000000D01*
X168000000Y-122000000D02*
X168000000Y-121000000D01*
%TO.N,Net-(D17-A)*%
X155000000Y-121000000D02*
X154000000Y-120000000D01*
X155000000Y-122000000D02*
X155000000Y-121000000D01*
%TO.N,Net-(D15-A)*%
X181000000Y-108000000D02*
X180000000Y-107000000D01*
X181000000Y-108700000D02*
X181000000Y-108000000D01*
%TO.N,Net-(D14-A)*%
X168000000Y-108000000D02*
X167000000Y-107000000D01*
X168000000Y-108700000D02*
X168000000Y-108000000D01*
%TO.N,Net-(D13-A)*%
X155000000Y-108000000D02*
X154000000Y-107000000D01*
X155000000Y-108700000D02*
X155000000Y-108000000D01*
%TO.N,Net-(D12-A)*%
X194000000Y-95000000D02*
X193000000Y-94000000D01*
X194000000Y-95700000D02*
X194000000Y-95000000D01*
%TO.N,Net-(D11-A)*%
X181000000Y-95000000D02*
X180000000Y-94000000D01*
X181000000Y-95700000D02*
X181000000Y-95000000D01*
%TO.N,Net-(D10-A)*%
X168000000Y-95000000D02*
X167000000Y-94000000D01*
X168000000Y-95700000D02*
X168000000Y-95000000D01*
%TO.N,Net-(D9-A)*%
X155000000Y-95000000D02*
X154000000Y-94000000D01*
X155000000Y-95700000D02*
X155000000Y-95000000D01*
%TO.N,Net-(D8-A)*%
X194000000Y-82000000D02*
X193000000Y-81000000D01*
X194000000Y-82700000D02*
X194000000Y-82000000D01*
%TO.N,Net-(D7-A)*%
X181000000Y-82000000D02*
X180000000Y-81000000D01*
X181000000Y-82700000D02*
X181000000Y-82000000D01*
%TO.N,Net-(D6-A)*%
X168000000Y-82000000D02*
X167000000Y-81000000D01*
X168000000Y-82700000D02*
X168000000Y-82000000D01*
%TO.N,Net-(D5-A)*%
X155000000Y-82000000D02*
X154000000Y-81000000D01*
X155000000Y-82700000D02*
X155000000Y-82000000D01*
%TO.N,Net-(D4-A)*%
X194000000Y-69000000D02*
X193000000Y-68000000D01*
X194000000Y-69700000D02*
X194000000Y-69000000D01*
%TO.N,Net-(D3-A)*%
X181000000Y-69000000D02*
X180000000Y-68000000D01*
X181000000Y-69700000D02*
X181000000Y-69000000D01*
%TO.N,Net-(D2-A)*%
X168000000Y-69000000D02*
X167000000Y-68000000D01*
X168000000Y-69700000D02*
X168000000Y-69000000D01*
%TO.N,Net-(D1-A)*%
X155000000Y-69000000D02*
X154000000Y-68000000D01*
X155000000Y-69700000D02*
X155000000Y-69000000D01*
%TO.N,Row4*%
X194000000Y-125300000D02*
X155000000Y-125300000D01*
%TO.N,Row3*%
X194000000Y-112000000D02*
X155000000Y-112000000D01*
%TO.N,Row2*%
X194000000Y-99000000D02*
X155000000Y-99000000D01*
%TO.N,Row1*%
X194000000Y-86000000D02*
X155000000Y-86000000D01*
%TO.N,Row0*%
X155000000Y-73000000D02*
X194000000Y-73000000D01*
%TO.N,Net-(D16-A)*%
X194000000Y-108700000D02*
X194000000Y-108000000D01*
X194000000Y-108000000D02*
X193000000Y-107000000D01*
%TO.N,Net-(J3-Pin_4)*%
X248980000Y-51360000D02*
X249000000Y-51380000D01*
%TO.N,Net-(J4-Pin_3)*%
X217000000Y-48840000D02*
X224267000Y-48840000D01*
%TO.N,Net-(J3-Pin_7)*%
X240452000Y-58980000D02*
X248980000Y-58980000D01*
%TO.N,Net-(J4-Pin_5)*%
X224267000Y-53920000D02*
X224287000Y-53900000D01*
%TO.N,Net-(J4-Pin_4)*%
X224267000Y-51380000D02*
X224287000Y-51360000D01*
%TO.N,Net-(J4-Pin_2)*%
X217000000Y-46300000D02*
X224267000Y-46300000D01*
%TO.N,Net-(J4-Pin_4)*%
X217000000Y-51380000D02*
X224267000Y-51380000D01*
%TO.N,Net-(J3-Pin_5)*%
X248980000Y-53900000D02*
X249000000Y-53920000D01*
%TO.N,Net-(J4-Pin_6)*%
X217000000Y-56460000D02*
X224267000Y-56460000D01*
%TO.N,Net-(J4-Pin_1)*%
X217000000Y-43760000D02*
X224267000Y-43760000D01*
%TO.N,Net-(J4-Pin_7)*%
X217000000Y-59000000D02*
X224267000Y-59000000D01*
%TO.N,Net-(J3-Pin_6)*%
X248980000Y-56440000D02*
X249000000Y-56460000D01*
%TO.N,Net-(J4-Pin_1)*%
X224267000Y-43760000D02*
X224287000Y-43740000D01*
%TO.N,Net-(J3-Pin_2)*%
X249000000Y-46300000D02*
X240472000Y-46300000D01*
%TO.N,Net-(J3-Pin_4)*%
X240452000Y-51360000D02*
X248980000Y-51360000D01*
%TO.N,Net-(J4-Pin_7)*%
X224267000Y-59000000D02*
X224287000Y-58980000D01*
%TO.N,Net-(J3-Pin_2)*%
X240472000Y-46300000D02*
X240452000Y-46280000D01*
%TO.N,Net-(J3-Pin_1)*%
X240472000Y-43760000D02*
X240452000Y-43740000D01*
%TO.N,Net-(J3-Pin_5)*%
X240452000Y-53900000D02*
X248980000Y-53900000D01*
%TO.N,Net-(J4-Pin_6)*%
X224267000Y-56460000D02*
X224287000Y-56440000D01*
%TO.N,Net-(J4-Pin_2)*%
X224267000Y-46300000D02*
X224287000Y-46280000D01*
%TO.N,Net-(J3-Pin_1)*%
X249000000Y-43760000D02*
X240472000Y-43760000D01*
%TO.N,Net-(J3-Pin_6)*%
X240452000Y-56440000D02*
X248980000Y-56440000D01*
%TO.N,Net-(J4-Pin_3)*%
X224267000Y-48840000D02*
X224287000Y-48820000D01*
%TO.N,Net-(J4-Pin_5)*%
X217000000Y-53920000D02*
X224267000Y-53920000D01*
%TO.N,Net-(J3-Pin_3)*%
X240472000Y-48840000D02*
X240452000Y-48820000D01*
%TO.N,Net-(J3-Pin_7)*%
X248980000Y-58980000D02*
X249000000Y-59000000D01*
%TO.N,Net-(J3-Pin_3)*%
X249000000Y-48840000D02*
X240472000Y-48840000D01*
%TO.N,Col0*%
X157000000Y-49000000D02*
X157540000Y-48460000D01*
%TD*%
M02*
