%TF.GenerationSoftware,KiCad,Pcbnew,9.0.7*%
%TF.CreationDate,2026-01-23T16:09:28+09:00*%
%TF.ProjectId,meishi_tenkey,6d656973-6869-45f7-9465-6e6b65792e6b,rev?*%
%TF.SameCoordinates,Original*%
%TF.FileFunction,Soldermask,Bot*%
%TF.FilePolarity,Negative*%
%FSLAX46Y46*%
G04 Gerber Fmt 4.6, Leading zero omitted, Abs format (unit mm)*
G04 Created by KiCad (PCBNEW 9.0.7) date 2026-01-23 16:09:28*
%MOMM*%
%LPD*%
G01*
G04 APERTURE LIST*
G04 Aperture macros list*
%AMRoundRect*
0 Rectangle with rounded corners*
0 $1 Rounding radius*
0 $2 $3 $4 $5 $6 $7 $8 $9 X,Y pos of 4 corners*
0 Add a 4 corners polygon primitive as box body*
4,1,4,$2,$3,$4,$5,$6,$7,$8,$9,$2,$3,0*
0 Add four circle primitives for the rounded corners*
1,1,$1+$1,$2,$3*
1,1,$1+$1,$4,$5*
1,1,$1+$1,$6,$7*
1,1,$1+$1,$8,$9*
0 Add four rect primitives between the rounded corners*
20,1,$1+$1,$2,$3,$4,$5,0*
20,1,$1+$1,$4,$5,$6,$7,0*
20,1,$1+$1,$6,$7,$8,$9,0*
20,1,$1+$1,$8,$9,$2,$3,0*%
G04 Aperture macros list end*
%ADD10R,1.700000X1.700000*%
%ADD11C,1.700000*%
%ADD12RoundRect,0.225000X0.375000X-0.225000X0.375000X0.225000X-0.375000X0.225000X-0.375000X-0.225000X0*%
%ADD13RoundRect,0.275000X-0.275000X0.975000X-0.275000X-0.975000X0.275000X-0.975000X0.275000X0.975000X0*%
%ADD14RoundRect,0.525400X0.900400X0.525400X-0.900400X0.525400X-0.900400X-0.525400X0.900400X-0.525400X0*%
G04 APERTURE END LIST*
D10*
%TO.C,J2*%
X163500000Y-40840000D03*
D11*
X163500000Y-43380000D03*
X163500000Y-45920000D03*
X163500000Y-48460000D03*
X163500000Y-51000000D03*
X163500000Y-53540000D03*
X163500000Y-56080000D03*
%TD*%
%TO.C,J4*%
X217000000Y-59000000D03*
X217000000Y-56460000D03*
X217000000Y-53920000D03*
X217000000Y-51380000D03*
X217000000Y-48840000D03*
X217000000Y-46300000D03*
D10*
X217000000Y-43760000D03*
%TD*%
D12*
%TO.C,D14*%
X168000000Y-112000000D03*
X168000000Y-108700000D03*
%TD*%
%TO.C,D13*%
X155000000Y-108700000D03*
X155000000Y-112000000D03*
%TD*%
%TO.C,D15*%
X181000000Y-112000000D03*
X181000000Y-108700000D03*
%TD*%
%TO.C,D16*%
X194000000Y-108700000D03*
X194000000Y-112000000D03*
%TD*%
%TO.C,D10*%
X168000000Y-99000000D03*
X168000000Y-95700000D03*
%TD*%
%TO.C,D11*%
X181000000Y-95700000D03*
X181000000Y-99000000D03*
%TD*%
%TO.C,D9*%
X155000000Y-95700000D03*
X155000000Y-99000000D03*
%TD*%
%TO.C,D12*%
X194000000Y-95700000D03*
X194000000Y-99000000D03*
%TD*%
%TO.C,D20*%
X194000000Y-125300000D03*
X194000000Y-122000000D03*
%TD*%
%TO.C,D6*%
X168000000Y-86000000D03*
X168000000Y-82700000D03*
%TD*%
%TO.C,D5*%
X155000000Y-86000000D03*
X155000000Y-82700000D03*
%TD*%
%TO.C,D2*%
X168000000Y-73000000D03*
X168000000Y-69700000D03*
%TD*%
%TO.C,D1*%
X155000000Y-73000000D03*
X155000000Y-69700000D03*
%TD*%
%TO.C,D4*%
X194000000Y-73000000D03*
X194000000Y-69700000D03*
%TD*%
%TO.C,D3*%
X181000000Y-73000000D03*
X181000000Y-69700000D03*
%TD*%
%TO.C,D7*%
X181000000Y-86000000D03*
X181000000Y-82700000D03*
%TD*%
%TO.C,D8*%
X194000000Y-82700000D03*
X194000000Y-86000000D03*
%TD*%
%TO.C,D17*%
X155000000Y-125300000D03*
X155000000Y-122000000D03*
%TD*%
%TO.C,D18*%
X168000000Y-122000000D03*
X168000000Y-125300000D03*
%TD*%
%TO.C,D19*%
X181000000Y-122000000D03*
X181000000Y-125300000D03*
%TD*%
D11*
%TO.C,J3*%
X249000000Y-59000000D03*
X249000000Y-56460000D03*
X249000000Y-53920000D03*
X249000000Y-51380000D03*
X249000000Y-48840000D03*
X249000000Y-46300000D03*
D10*
X249000000Y-43760000D03*
%TD*%
D11*
%TO.C,U1*%
X231000000Y-45522000D03*
X233540000Y-45522000D03*
X231000000Y-42982000D03*
X233540000Y-42982000D03*
D13*
X231000000Y-60000000D03*
X233540000Y-60000000D03*
D14*
X224287000Y-43740000D03*
X224287000Y-46280000D03*
X224287000Y-48820000D03*
X224287000Y-51360000D03*
X224287000Y-53900000D03*
X224287000Y-56440000D03*
X224287000Y-58980000D03*
X240452000Y-58980000D03*
X240452000Y-56440000D03*
X240452000Y-53900000D03*
X240452000Y-51360000D03*
X240452000Y-48820000D03*
X240452000Y-46280000D03*
X240452000Y-43740000D03*
%TD*%
D11*
%TO.C,J1*%
X179000000Y-56080000D03*
X179000000Y-53540000D03*
X179000000Y-51000000D03*
X179000000Y-48460000D03*
X179000000Y-45920000D03*
X179000000Y-43380000D03*
D10*
X179000000Y-40840000D03*
%TD*%
M02*
