%TF.GenerationSoftware,KiCad,Pcbnew,9.0.7*%
%TF.CreationDate,2026-02-27T13:31:35+09:00*%
%TF.ProjectId,meishi_tenkey,6d656973-6869-45f7-9465-6e6b65792e6b,rev?*%
%TF.SameCoordinates,Original*%
%TF.FileFunction,Copper,L2,Bot*%
%TF.FilePolarity,Positive*%
%FSLAX46Y46*%
G04 Gerber Fmt 4.6, Leading zero omitted, Abs format (unit mm)*
G04 Created by KiCad (PCBNEW 9.0.7) date 2026-02-27 13:31:35*
%MOMM*%
%LPD*%
G01*
G04 APERTURE LIST*
G04 Aperture macros list*
%AMRoundRect*
0 Rectangle with rounded corners*
0 $1 Rounding radius*
0 $2 $3 $4 $5 $6 $7 $8 $9 X,Y pos of 4 corners*
0 Add a 4 corners polygon primitive as box body*
4,1,4,$2,$3,$4,$5,$6,$7,$8,$9,$2,$3,0*
0 Add four circle primitives for the rounded corners*
1,1,$1+$1,$2,$3*
1,1,$1+$1,$4,$5*
1,1,$1+$1,$6,$7*
1,1,$1+$1,$8,$9*
0 Add four rect primitives between the rounded corners*
20,1,$1+$1,$2,$3,$4,$5,0*
20,1,$1+$1,$4,$5,$6,$7,0*
20,1,$1+$1,$6,$7,$8,$9,0*
20,1,$1+$1,$8,$9,$2,$3,0*%
G04 Aperture macros list end*
%TA.AperFunction,SMDPad,CuDef*%
%ADD10RoundRect,0.225000X0.375000X-0.225000X0.375000X0.225000X-0.375000X0.225000X-0.375000X-0.225000X0*%
%TD*%
%TA.AperFunction,SMDPad,CuDef*%
%ADD11RoundRect,0.152400X-1.063600X-0.609600X1.063600X-0.609600X1.063600X0.609600X-1.063600X0.609600X0*%
%TD*%
%TA.AperFunction,ComponentPad*%
%ADD12C,1.524000*%
%TD*%
%TA.AperFunction,SMDPad,CuDef*%
%ADD13RoundRect,0.152400X1.063600X0.609600X-1.063600X0.609600X-1.063600X-0.609600X1.063600X-0.609600X0*%
%TD*%
%TA.AperFunction,ViaPad*%
%ADD14C,0.600000*%
%TD*%
%TA.AperFunction,Conductor*%
%ADD15C,0.200000*%
%TD*%
G04 APERTURE END LIST*
D10*
%TO.P,D2,1,K*%
%TO.N,Row0*%
X168000000Y-73000000D03*
%TO.P,D2,2,A*%
%TO.N,Net-(D2-A)*%
X168000000Y-69700000D03*
%TD*%
%TO.P,D14,1,K*%
%TO.N,Row3*%
X168000000Y-112000000D03*
%TO.P,D14,2,A*%
%TO.N,Net-(D14-A)*%
X168000000Y-108700000D03*
%TD*%
D11*
%TO.P,U1,1,GPIO26/ADC0/A0*%
%TO.N,Row0*%
X179835000Y-40840000D03*
D12*
X179000000Y-40840000D03*
D11*
%TO.P,U1,2,GPIO27/ADC1/A1*%
%TO.N,Row1*%
X179835000Y-43380000D03*
D12*
X179000000Y-43380000D03*
D11*
%TO.P,U1,3,GPIO28/ADC2/A2*%
%TO.N,Row2*%
X179835000Y-45920000D03*
D12*
X179000000Y-45920000D03*
D11*
%TO.P,U1,4,GPIO29/ADC3/A3*%
%TO.N,Row3*%
X179835000Y-48460000D03*
D12*
X179000000Y-48460000D03*
D11*
%TO.P,U1,5,GPIO6/SDA*%
%TO.N,Row4*%
X179835000Y-51000000D03*
D12*
X179000000Y-51000000D03*
D11*
%TO.P,U1,6,GPIO7/SCL*%
%TO.N,unconnected-(U1-GPIO7{slash}SCL-Pad6)*%
X179835000Y-53540000D03*
D12*
X179000000Y-53540000D03*
D11*
%TO.P,U1,7,GPIO0/TX*%
%TO.N,unconnected-(U1-GPIO0{slash}TX-Pad7)*%
X179835000Y-56080000D03*
D12*
X179000000Y-56080000D03*
%TO.P,U1,8,GPIO1/RX*%
%TO.N,Col3*%
X163760000Y-56080000D03*
D13*
X162925000Y-56080000D03*
D12*
%TO.P,U1,9,GPIO2/SCK*%
%TO.N,Col2*%
X163760000Y-53540000D03*
D13*
X162925000Y-53540000D03*
D12*
%TO.P,U1,10,GPIO4/MISO*%
%TO.N,Col1*%
X163760000Y-51000000D03*
D13*
X162925000Y-51000000D03*
D12*
%TO.P,U1,11,GPIO3/MOSI*%
%TO.N,Col0*%
X163760000Y-48460000D03*
D13*
X162925000Y-48460000D03*
D12*
%TO.P,U1,12,3V3*%
%TO.N,unconnected-(U1-3V3-Pad12)*%
X163760000Y-45920000D03*
D13*
X162925000Y-45920000D03*
D12*
%TO.P,U1,13,GND*%
%TO.N,unconnected-(U1-GND-Pad13)*%
X163760000Y-43380000D03*
D13*
X162925000Y-43380000D03*
D12*
%TO.P,U1,14,VBUS*%
%TO.N,unconnected-(U1-VBUS-Pad14)*%
X163760000Y-40840000D03*
D13*
X162925000Y-40840000D03*
%TD*%
D10*
%TO.P,D6,1,K*%
%TO.N,Row1*%
X168000000Y-86000000D03*
%TO.P,D6,2,A*%
%TO.N,Net-(D6-A)*%
X168000000Y-82700000D03*
%TD*%
%TO.P,D19,1,K*%
%TO.N,Row4*%
X181000000Y-125300000D03*
%TO.P,D19,2,A*%
%TO.N,Net-(D19-A)*%
X181000000Y-122000000D03*
%TD*%
%TO.P,D3,1,K*%
%TO.N,Row0*%
X181000000Y-73000000D03*
%TO.P,D3,2,A*%
%TO.N,Net-(D3-A)*%
X181000000Y-69700000D03*
%TD*%
%TO.P,D1,1,K*%
%TO.N,Row0*%
X155000000Y-73000000D03*
%TO.P,D1,2,A*%
%TO.N,Net-(D1-A)*%
X155000000Y-69700000D03*
%TD*%
%TO.P,D12,1,K*%
%TO.N,Row2*%
X194000000Y-99000000D03*
%TO.P,D12,2,A*%
%TO.N,Net-(D12-A)*%
X194000000Y-95700000D03*
%TD*%
%TO.P,D18,1,K*%
%TO.N,Row4*%
X168000000Y-125300000D03*
%TO.P,D18,2,A*%
%TO.N,Net-(D18-A)*%
X168000000Y-122000000D03*
%TD*%
%TO.P,D9,1,K*%
%TO.N,Row2*%
X155000000Y-99000000D03*
%TO.P,D9,2,A*%
%TO.N,Net-(D9-A)*%
X155000000Y-95700000D03*
%TD*%
%TO.P,D7,1,K*%
%TO.N,Row1*%
X181000000Y-86000000D03*
%TO.P,D7,2,A*%
%TO.N,Net-(D7-A)*%
X181000000Y-82700000D03*
%TD*%
%TO.P,D20,1,K*%
%TO.N,Row4*%
X194000000Y-125300000D03*
%TO.P,D20,2,A*%
%TO.N,Net-(D20-A)*%
X194000000Y-122000000D03*
%TD*%
%TO.P,D11,1,K*%
%TO.N,Row2*%
X181000000Y-99000000D03*
%TO.P,D11,2,A*%
%TO.N,Net-(D11-A)*%
X181000000Y-95700000D03*
%TD*%
%TO.P,D13,1,K*%
%TO.N,Row3*%
X155000000Y-112000000D03*
%TO.P,D13,2,A*%
%TO.N,Net-(D13-A)*%
X155000000Y-108700000D03*
%TD*%
%TO.P,D17,1,K*%
%TO.N,Row4*%
X155000000Y-125300000D03*
%TO.P,D17,2,A*%
%TO.N,Net-(D17-A)*%
X155000000Y-122000000D03*
%TD*%
%TO.P,D16,1,K*%
%TO.N,Row3*%
X194000000Y-112000000D03*
%TO.P,D16,2,A*%
%TO.N,Net-(D16-A)*%
X194000000Y-108700000D03*
%TD*%
%TO.P,D10,1,K*%
%TO.N,Row2*%
X168000000Y-99000000D03*
%TO.P,D10,2,A*%
%TO.N,Net-(D10-A)*%
X168000000Y-95700000D03*
%TD*%
%TO.P,D15,1,K*%
%TO.N,Row3*%
X181000000Y-112000000D03*
%TO.P,D15,2,A*%
%TO.N,Net-(D15-A)*%
X181000000Y-108700000D03*
%TD*%
%TO.P,D8,1,K*%
%TO.N,Row1*%
X194000000Y-86000000D03*
%TO.P,D8,2,A*%
%TO.N,Net-(D8-A)*%
X194000000Y-82700000D03*
%TD*%
%TO.P,D5,1,K*%
%TO.N,Row1*%
X155000000Y-86000000D03*
%TO.P,D5,2,A*%
%TO.N,Net-(D5-A)*%
X155000000Y-82700000D03*
%TD*%
%TO.P,D4,1,K*%
%TO.N,Row0*%
X194000000Y-73000000D03*
%TO.P,D4,2,A*%
%TO.N,Net-(D4-A)*%
X194000000Y-69700000D03*
%TD*%
D14*
%TO.N,Net-(D1-A)*%
X154000000Y-68000000D03*
%TO.N,Net-(D2-A)*%
X167000000Y-68000000D03*
%TO.N,Net-(D3-A)*%
X180000000Y-68000000D03*
%TO.N,Net-(D4-A)*%
X193000000Y-68000000D03*
%TO.N,Net-(D5-A)*%
X154000000Y-81000000D03*
%TO.N,Net-(D6-A)*%
X167000000Y-81000000D03*
%TO.N,Net-(D7-A)*%
X180000000Y-81000000D03*
%TO.N,Net-(D8-A)*%
X193000000Y-81000000D03*
%TO.N,Net-(D9-A)*%
X154000000Y-94000000D03*
%TO.N,Net-(D10-A)*%
X167000000Y-94000000D03*
%TO.N,Net-(D11-A)*%
X180000000Y-94000000D03*
%TO.N,Net-(D12-A)*%
X193000000Y-94000000D03*
%TO.N,Net-(D13-A)*%
X154000000Y-107000000D03*
%TO.N,Net-(D14-A)*%
X167000000Y-107000000D03*
%TO.N,Net-(D15-A)*%
X180000000Y-107000000D03*
%TO.N,Net-(D16-A)*%
X193000000Y-107000000D03*
%TO.N,Net-(D17-A)*%
X154000000Y-120000000D03*
%TO.N,Net-(D18-A)*%
X167000000Y-120000000D03*
%TO.N,Net-(D19-A)*%
X180000000Y-120000000D03*
%TO.N,Net-(D20-A)*%
X193000000Y-120000000D03*
%TO.N,Col0*%
X157000000Y-49000000D03*
%TO.N,Col1*%
X157000000Y-52000000D03*
%TO.N,Col2*%
X157000000Y-54000000D03*
%TO.N,Col3*%
X157000000Y-57000000D03*
%TD*%
D15*
%TO.N,Net-(D1-A)*%
X155000000Y-69700000D02*
X155000000Y-69000000D01*
X155000000Y-69000000D02*
X154000000Y-68000000D01*
%TO.N,Row0*%
X150000000Y-73000000D02*
X149000000Y-72000000D01*
X149000000Y-72000000D02*
X149000000Y-68000000D01*
X150000000Y-67000000D02*
X181000000Y-67000000D01*
X149000000Y-68000000D02*
X150000000Y-67000000D01*
X179000000Y-40840000D02*
X183840000Y-40840000D01*
X186000000Y-62000000D02*
X186000000Y-43000000D01*
X181000000Y-67000000D02*
X186000000Y-62000000D01*
X155000000Y-73000000D02*
X194000000Y-73000000D01*
X155000000Y-73000000D02*
X150000000Y-73000000D01*
X186000000Y-43000000D02*
X183840000Y-40840000D01*
%TO.N,Net-(D2-A)*%
X168000000Y-69700000D02*
X168000000Y-69000000D01*
X168000000Y-69000000D02*
X167000000Y-68000000D01*
%TO.N,Net-(D3-A)*%
X181000000Y-69000000D02*
X180000000Y-68000000D01*
X181000000Y-69700000D02*
X181000000Y-69000000D01*
%TO.N,Net-(D4-A)*%
X194000000Y-69000000D02*
X193000000Y-68000000D01*
X194000000Y-69700000D02*
X194000000Y-69000000D01*
%TO.N,Net-(D5-A)*%
X155000000Y-82000000D02*
X154000000Y-81000000D01*
X155000000Y-82700000D02*
X155000000Y-82000000D01*
%TO.N,Row1*%
X179000000Y-43380000D02*
X183380000Y-43380000D01*
X148000000Y-85000000D02*
X149000000Y-86000000D01*
X185000000Y-45000000D02*
X185000000Y-61000000D01*
X180000000Y-66000000D02*
X149000000Y-66000000D01*
X185000000Y-61000000D02*
X180000000Y-66000000D01*
X183380000Y-43380000D02*
X185000000Y-45000000D01*
X149000000Y-86000000D02*
X155000000Y-86000000D01*
X148000000Y-67000000D02*
X148000000Y-85000000D01*
X194000000Y-86000000D02*
X155000000Y-86000000D01*
X149000000Y-66000000D02*
X148000000Y-67000000D01*
%TO.N,Net-(D6-A)*%
X168000000Y-82700000D02*
X168000000Y-82000000D01*
X168000000Y-82000000D02*
X167000000Y-81000000D01*
%TO.N,Net-(D7-A)*%
X181000000Y-82000000D02*
X180000000Y-81000000D01*
X181000000Y-82700000D02*
X181000000Y-82000000D01*
%TO.N,Net-(D8-A)*%
X194000000Y-82700000D02*
X194000000Y-82000000D01*
X194000000Y-82000000D02*
X193000000Y-81000000D01*
%TO.N,Row2*%
X149000000Y-99000000D02*
X155000000Y-99000000D01*
X147000000Y-66000000D02*
X147000000Y-97000000D01*
X179000000Y-45920000D02*
X181920000Y-45920000D01*
X184000000Y-48000000D02*
X184000000Y-60000000D01*
X194000000Y-99000000D02*
X155000000Y-99000000D01*
X148000000Y-65000000D02*
X147000000Y-66000000D01*
X184000000Y-60000000D02*
X179000000Y-65000000D01*
X147000000Y-97000000D02*
X149000000Y-99000000D01*
X179000000Y-65000000D02*
X148000000Y-65000000D01*
X181920000Y-45920000D02*
X184000000Y-48000000D01*
%TO.N,Net-(D9-A)*%
X155000000Y-95700000D02*
X155000000Y-95000000D01*
X155000000Y-95000000D02*
X154000000Y-94000000D01*
%TO.N,Net-(D10-A)*%
X168000000Y-95700000D02*
X168000000Y-95000000D01*
X168000000Y-95000000D02*
X167000000Y-94000000D01*
%TO.N,Net-(D11-A)*%
X181000000Y-95000000D02*
X180000000Y-94000000D01*
X181000000Y-95700000D02*
X181000000Y-95000000D01*
%TO.N,Net-(D12-A)*%
X194000000Y-95000000D02*
X193000000Y-94000000D01*
X194000000Y-95700000D02*
X194000000Y-95000000D01*
%TO.N,Row3*%
X178000000Y-64000000D02*
X147000000Y-64000000D01*
X179000000Y-48460000D02*
X181460000Y-48460000D01*
X147000000Y-112000000D02*
X155000000Y-112000000D01*
X194000000Y-112000000D02*
X155000000Y-112000000D01*
X146000000Y-111000000D02*
X147000000Y-112000000D01*
X183000000Y-59000000D02*
X178000000Y-64000000D01*
X146000000Y-65000000D02*
X146000000Y-111000000D01*
X181460000Y-48460000D02*
X183000000Y-50000000D01*
X147000000Y-64000000D02*
X146000000Y-65000000D01*
X183000000Y-50000000D02*
X183000000Y-59000000D01*
%TO.N,Net-(D13-A)*%
X155000000Y-108700000D02*
X155000000Y-108000000D01*
X155000000Y-108000000D02*
X154000000Y-107000000D01*
%TO.N,Net-(D14-A)*%
X168000000Y-108700000D02*
X168000000Y-108000000D01*
X168000000Y-108000000D02*
X167000000Y-107000000D01*
%TO.N,Net-(D15-A)*%
X181000000Y-108700000D02*
X181000000Y-108000000D01*
X181000000Y-108000000D02*
X180000000Y-107000000D01*
%TO.N,Net-(D16-A)*%
X194000000Y-108700000D02*
X194000000Y-108000000D01*
X194000000Y-108000000D02*
X193000000Y-107000000D01*
%TO.N,Row4*%
X146300000Y-125300000D02*
X145000000Y-124000000D01*
X146000000Y-63000000D02*
X178000000Y-63000000D01*
X145000000Y-124000000D02*
X145000000Y-64000000D01*
X178000000Y-63000000D02*
X182000000Y-59000000D01*
X181000000Y-51000000D02*
X182000000Y-52000000D01*
X194000000Y-125300000D02*
X155000000Y-125300000D01*
X179000000Y-51000000D02*
X181000000Y-51000000D01*
X145000000Y-64000000D02*
X146000000Y-63000000D01*
X182000000Y-59000000D02*
X182000000Y-52000000D01*
X155000000Y-125300000D02*
X146300000Y-125300000D01*
%TO.N,Net-(D17-A)*%
X155000000Y-122000000D02*
X155000000Y-121000000D01*
X155000000Y-121000000D02*
X154000000Y-120000000D01*
%TO.N,Net-(D18-A)*%
X168000000Y-121000000D02*
X167000000Y-120000000D01*
X168000000Y-122000000D02*
X168000000Y-121000000D01*
%TO.N,Net-(D19-A)*%
X181000000Y-122000000D02*
X181000000Y-121000000D01*
X181000000Y-121000000D02*
X180000000Y-120000000D01*
%TO.N,Net-(D20-A)*%
X194000000Y-122000000D02*
X194000000Y-121000000D01*
X194000000Y-121000000D02*
X193000000Y-120000000D01*
%TO.N,Col0*%
X157000000Y-49000000D02*
X157540000Y-48460000D01*
X157540000Y-48460000D02*
X163760000Y-48460000D01*
%TO.N,Col1*%
X158000000Y-51000000D02*
X163760000Y-51000000D01*
X157000000Y-52000000D02*
X158000000Y-51000000D01*
%TO.N,Col2*%
X157000000Y-54000000D02*
X157460000Y-53540000D01*
X157460000Y-53540000D02*
X163760000Y-53540000D01*
%TO.N,Col3*%
X157920000Y-56080000D02*
X163760000Y-56080000D01*
X157000000Y-57000000D02*
X157920000Y-56080000D01*
%TD*%
M02*
